<?xml version="1.0" encoding="utf-8"?>
<!-- Generator: Adobe Illustrator 27.6.1, SVG Export Plug-In . SVG Version: 6.00 Build 0)  -->
<svg version="1.0" id="Warstwa_1" xmlns="http://www.w3.org/2000/svg" xmlns:xlink="http://www.w3.org/1999/xlink" x="0px" y="0px"
	 viewBox="0 0 566.9 110.5" style="enable-background:new 0 0 566.9 110.5;" xml:space="preserve">
<style type="text/css">
	.st0{fill:#010202;}
</style>
<g>
	<path class="st0" d="M74.9,72.8h3.3l-2,28.6H0v-3.1h1.9c4.6,0,7.5-0.6,8.9-1.8c1.3-1.2,2.2-2.8,2.5-4.7c0.4-1.9,0.5-6.7,0.5-14.4
		V32.3c0-7-0.2-11.6-0.6-13.8c-0.4-2.2-1.3-3.8-2.6-4.6c-1.4-0.9-4.3-1.3-8.7-1.3V9.4h65.8l2.2,22.9h-3.2c-1.4-6.4-3.2-11-5.3-13.7
		c-2.1-2.7-4.6-4.4-7.5-5.1c-2.9-0.7-7.6-1.1-14-1.1H27.1v38.6h9.8c4.5,0,7.6-0.4,9.4-1.2c1.8-0.8,3-1.9,3.5-3.5
		c0.6-1.6,0.8-4.6,0.8-9.1h3.2v31.5h-3.2c0-5.1-0.4-8.5-1.3-10.3c-0.9-1.7-2.1-2.9-3.8-3.4c-1.7-0.5-4.4-0.8-8.4-0.8H27.1v21.8
		c0,10.9,0.7,17.3,2.1,19.2c1.4,1.9,5.2,2.9,11.3,2.9h6.9c4.8,0,8.8-0.6,11.9-1.9c3.1-1.2,6.1-3.8,8.9-7.7
		C71.1,84.9,73.3,79.6,74.9,72.8"/>
	<path class="st0" d="M168.1,103.6L103,17.3v63.9c0,5.3,0.3,8.8,0.8,10.5c0.5,1.7,2,3.2,4.4,4.6c2.4,1.4,6.1,2.1,11,2.1v3.1H84.8
		v-3.1c4.4-0.3,7.7-1.1,10-2.4s3.7-2.7,4.1-4.2c0.4-1.5,0.6-5,0.6-10.6V32.3c0-7.1-0.3-11.8-1-14.2c-0.7-2.4-1.7-3.9-3.1-4.6
		c-1.4-0.7-4.6-1-9.5-1V9.4h27.2l54.5,72V26.4c0-4.1-0.4-6.9-1.3-8.6c-0.8-1.6-2.5-2.9-5.1-3.9c-2.6-0.9-5.7-1.4-9.3-1.4V9.4h33.4
		v3.1c-3.9,0.3-7,1.1-9.2,2.2c-2.2,1.2-3.7,2.6-4.3,4.2c-0.6,1.7-0.9,4.4-0.9,8.4v76.2H168.1z"/>
	<path class="st0" d="M287.8,101.4h-24.8c-4.4-3.1-11.1-11.1-20.2-24.2c-2.9-4.2-5.9-8.2-9-12c-3.1-3.8-5.3-6.2-6.4-7
		c-1.2-0.8-3-1.3-5.5-1.3h-3.7v20.4c0,7.2,0.2,12,0.5,14.2c0.3,2.2,1.2,3.9,2.7,5c1.5,1.1,4.3,1.6,8.5,1.6h4.4v3.1h-44.1v-3.1h3
		c3.9,0,6.7-0.5,8.2-1.5c1.5-1,2.5-2.5,2.9-4.6c0.4-2.1,0.6-7,0.6-14.7V32.3c0-7.3-0.2-12.1-0.6-14.2c-0.4-2.1-1.3-3.6-2.7-4.4
		c-1.4-0.8-4.4-1.2-9.1-1.2H191V9.4l13.2-0.7c8.8-0.4,15.8-0.6,20.9-0.6c8.8,0,15.9,0.8,21.4,2.4c5.5,1.6,9.9,4.3,13.3,8
		c3.4,3.7,5.1,8.1,5.1,13.3c0,6-2.2,11.2-6.7,15.4c-4.4,4.3-11,6.9-19.6,7.9c3.8,1.9,10,8.6,18.6,20.1c7,9.4,12.4,15.5,16.4,18.4
		c4,2.9,8.7,4.4,14.1,4.6V101.4z M218.2,53.9c3.4-0.1,6.9-0.2,10.5-0.4c3.6-0.2,6.8-0.7,9.4-1.5c2.7-0.8,4.8-2,6.5-3.6
		c1.7-1.6,3-3.6,3.9-6.1c0.9-2.5,1.4-5.7,1.4-9.4c0-6.5-1.6-11.7-4.9-15.5c-3.2-3.9-10.3-5.8-21.1-5.8c-1.7,0-3.6,0.1-5.8,0.3V53.9z
		"/>
	<path class="st0" d="M348.1,67.5h-35l-2.4,5.8c-3.5,8.5-5.3,14-5.3,16.6c0,2.8,0.9,4.9,2.8,6.3c1.9,1.4,4.3,2.1,7.2,2.1v3.1h-27.4
		v-3.1c4.1-0.6,7.1-2.1,9.1-4.3c2-2.2,4.4-7,7.2-14.2c0.2-0.7,1.3-3.3,3.3-7.9l26.7-63.9h2.6l30.8,73.1l4.2,9.6
		c1,2.2,2.2,3.9,3.8,5.1c1.6,1.2,4,2,7.2,2.3v3.1H347v-3.1c4.4,0,7.4-0.3,9-1c1.6-0.7,2.3-2,2.3-3.9c0-1-1-4-3.1-8.9L348.1,67.5z
		 M347,64.4l-16.3-39.2l-16.2,39.2H347z"/>
	<path class="st0" d="M441.3,62.1H481v3.3c-4.4,0-7.4,0.4-8.9,1.3c-1.6,0.9-2.6,2.4-3.1,4.4c-0.5,2.1-0.7,7-0.7,15v9.8
		c-1.1-0.2-2.1-0.3-2.9-0.3c-3.5,0-8.1,1.1-13.7,3.2c-7.7,2.9-14.8,4.3-21.4,4.3c-13.2,0-24.1-4.3-32.9-13
		c-8.7-8.7-13.1-19.7-13.1-33c0-13.2,4.2-24.7,12.5-34.6c8.3-9.9,19.6-14.9,33.9-14.9c12.3,0,22.5,4.5,30.5,13.6
		c1.5-3.2,2.4-6.6,2.9-10.3h3.3v30.8h-3.3c-1.3-9.5-4.9-16.9-10.8-22.5c-5.9-5.5-13-8.3-21.4-8.3c-8.6,0-16.2,3.2-22.6,9.6
		s-9.6,17.8-9.6,34.2c0,16.3,3.1,27.9,9.3,34.7c6.2,6.8,13.9,10.2,23.1,10.2c4.7,0,9-1,12.8-2.9c3.8-1.9,6.5-4.3,7.9-7
		c1.4-2.8,2.1-6.2,2.1-10.5c0-4.9-0.3-8.2-1-9.9c-0.7-1.7-1.7-2.8-3-3.3c-1.4-0.6-3.8-0.8-7.5-0.8h-2.2V62.1z"/>
	<path class="st0" d="M563.7,72.8h3.3l-2,28.6h-76.2v-3.1h1.9c4.6,0,7.5-0.6,8.9-1.8c1.3-1.2,2.2-2.8,2.5-4.7
		c0.4-1.9,0.5-6.7,0.5-14.4V32.3c0-7-0.2-11.6-0.6-13.8c-0.4-2.2-1.3-3.8-2.6-4.6c-1.4-0.9-4.3-1.3-8.7-1.3V9.4h65.8l2.2,22.9h-3.2
		c-1.4-6.4-3.2-11-5.3-13.7c-2.1-2.7-4.6-4.4-7.5-5.1c-2.9-0.7-7.6-1.1-14-1.1h-12.8v38.6h9.8c4.5,0,7.6-0.4,9.4-1.2
		c1.8-0.8,3-1.9,3.5-3.5c0.6-1.6,0.8-4.6,0.8-9.1h3.2v31.5h-3.2c0-5.1-0.4-8.5-1.3-10.3c-0.9-1.7-2.1-2.9-3.8-3.4
		c-1.7-0.5-4.4-0.8-8.4-0.8h-10.1v21.8c0,10.9,0.7,17.3,2.1,19.2c1.4,1.9,5.2,2.9,11.3,2.9h6.9c4.8,0,8.8-0.6,11.9-1.9
		c3.1-1.2,6.1-3.8,8.9-7.7C559.8,84.9,562,79.6,563.7,72.8"/>
</g>
</svg>
