<svg id="Layer_1" data-name="Layer 1" xmlns="http://www.w3.org/2000/svg" viewBox="0 0 276.99 206.37"><title>GAP logo - Brandlogos.net</title><path d="M364.46,392.32H385.3L374.25,311Zm22,92.44V481.3h2.75c5.75-.36,6.25-2.09,6.27-6.81l-9.77-78.6H364.05L354.75,472c-.79,4.83,2.79,9.35,10.69,9.35v3.46H337.52V481.3c10.79-.18,11.48-4.3,12.83-11.05l23-187.51h15.84l23.63,189.49v-.15a9.41,9.41,0,0,0,9.94,9.22h1v3.46Zm96-100V392h10.23a11.41,11.41,0,0,0,12-12V299q0-.64,0-1.27t-.17-1.26q-.12-.63-.29-1.24t-.42-1.2q-.24-.59-.53-1.16t-.65-1.1q-.35-.53-.75-1t-.85-.95q-.45-.45-.94-.86t-1-.76q-.53-.35-1.09-.66t-1.15-.54q-.59-.24-1.2-.43t-1.24-.31q-.63-.12-1.26-.18t-1.27-.05h-9.32Zm-27.68,100v-3.46h2c6-.23,7.56-1.68,7.78-5.78V286H454.8v-3.2h37.09c21.9,0,30.61,10.1,30.61,21.36v72.2c0,11.26-10.1,19.67-27.83,19.67H482.49v76.22c.13,6,2.72,8.83,9.74,9.07h4.39v3.46Zm-181.4,2.4c-13.74-.16-27.72-5-27.91-31.1V306c0-20.41,15.52-25.1,26.29-25.15a38.78,38.78,0,0,1,20.05,6.51c1.68,1,3.77,1.29,3.78-2v-2.73h5v63.78h-7c-3.63,0-4.86-1.12-4.86-4.4a267.61,267.61,0,0,0-3.64-42.38c-2.14-9.12-6.75-15.11-13.37-15.14-8-.07-9,10.84-9,15.52V472.16q0,.55,0,1.11t.11,1.1q.08.55.22,1.09t.33,1.06q.19.52.43,1t.53,1q.29.47.63.92t.71.85q.38.41.79.77t.87.69q.45.32.93.6t1,.51q.51.23,1,.41t1.07.3q.54.12,1.09.19t1.1.09q.57,0,1.13-.06t1.12-.17q.56-.11,1.1-.28t1.06-.39q.52-.22,1-.49t1-.59q.47-.32.9-.69t.83-.77q.4-.41.75-.85t.66-.92q.31-.48.57-1t.46-1q.21-.53.36-1.08t.25-1.11q.1-.56.14-1.13t0-1.13V395.94H274v-3.72h37.73v3.72h-8.93v89.57h-4.44c0-3.85-2.52-5.93-4.81-5-4.29,1.7-9.41,6.72-20,6.72Z" transform="translate(-245.5 -280.82)"/></svg>