<?xml version="1.0" encoding="UTF-8" standalone="no"?>

<svg
   xmlns:svg="http://www.w3.org/2000/svg"
   xmlns="http://www.w3.org/2000/svg"
   version="1.0"
   width="2171"
   height="480"
   id="svg2">
  <defs
     id="defs5" />
  <path
     d="M 6.9908094,241.49081 L 6.9908094,8.9908124 L 1086.9908,8.9908124 L 2166.9908,8.9908124 L 2166.9908,241.49081 L 2166.9908,473.99081 L 1086.9908,473.99081 L 6.9908094,473.99081 L 6.9908094,241.49081 z M 2160.9908,241.99081 L 2160.9908,14.990812 L 1086.7408,14.990792 L 12.490809,14.990782 L 12.745119,241.9908 L 12.999439,468.99081 L 1086.9951,468.99081 L 2160.9908,468.99081 L 2160.9908,241.99081 z M 1209.9908,332.40898 C 1208.6158,332.16617 1204.7908,331.49165 1201.4908,330.91005 C 1193.0636,329.42483 1183.8472,326.50171 1176.4288,322.96124 C 1170.0854,319.93381 1155.4908,309.57006 1155.4908,308.09299 C 1155.4908,307.66212 1160.3579,303.20677 1166.3065,298.19222 L 1177.1222,289.07486 L 1182.5939,293.53157 C 1191.8509,301.07151 1199.7114,304.16652 1214.4496,306.07442 C 1224.2727,307.34606 1238.6779,306.68412 1246.5823,304.59788 C 1258.0321,301.57589 1262.9908,296.73774 1262.9908,288.5884 C 1262.9908,284.42862 1262.5211,282.89816 1260.7272,281.21285 C 1256.2148,276.97371 1251.2427,275.85837 1228.0899,273.89166 C 1215.7042,272.83956 1202.6276,271.25848 1199.0307,270.37816 C 1175.2612,264.56072 1162.7046,248.06183 1166.0602,227.05653 C 1168.0649,214.50777 1176.7804,203.84152 1190.2604,197.4399 C 1201.1801,192.25419 1210.0202,190.61594 1226.9908,190.63302 C 1243.5864,190.64973 1254.986,192.52013 1267.4718,197.27499 C 1275.5378,200.34671 1289.9908,208.47143 1289.9908,209.93399 C 1289.9908,210.58085 1277.9464,221.16725 1270.7422,226.85255 C 1269.2405,228.03757 1267.9443,227.68487 1260.7537,224.13464 C 1249.5764,218.61603 1241.0272,216.72167 1226.9908,216.65331 C 1212.4257,216.58237 1205.2316,218.51475 1199.7856,223.96077 C 1196.4262,227.32016 1195.9908,228.31712 1195.9908,232.65066 C 1195.9908,242.88794 1201.4214,245.30942 1229.2706,247.49 C 1239.8417,248.31771 1251.6219,249.50045 1255.4489,250.11832 C 1280.9814,254.24057 1293.2331,266.49315 1293.3186,287.99081 C 1293.364,299.40406 1290.7761,306.0092 1283.0033,314.31827 C 1271.519,326.59509 1255.7109,331.9144 1228.9908,332.4931 C 1219.9158,332.68965 1211.3658,332.65179 1209.9908,332.40898 z M 1399.3896,331.60059 C 1388.9654,329.89617 1378.1409,326.5916 1370.526,322.78893 C 1364.1234,319.5916 1349.9908,309.50078 1349.9908,308.12654 C 1349.9908,307.67736 1353.4783,304.38463 1357.7408,300.80937 C 1362.0033,297.2341 1366.8777,293.13596 1368.5727,291.70239 L 1371.6546,289.09589 L 1376.5578,293.14761 C 1388.3016,302.85216 1399.9076,306.34732 1420.4908,306.37807 C 1446.0527,306.41627 1457.9763,300.62426 1457.9871,288.16389 C 1457.99,284.74481 1457.3973,283.24344 1455.162,281.00816 C 1450.7301,276.57628 1447.1598,275.90658 1412.1373,272.93792 C 1384.9896,270.63676 1370.9657,263.81044 1363.8999,249.45777 C 1355.5631,232.52338 1361.1953,212.65814 1377.4908,201.52145 C 1401.4099,185.17459 1449.4579,186.94326 1478.2851,205.23174 C 1481.9732,207.57157 1484.9908,209.71914 1484.9908,210.0041 C 1484.9908,210.80056 1464.1607,227.99081 1463.1956,227.99081 C 1462.7283,227.99081 1459.8394,226.63322 1456.7759,224.97395 C 1439.3515,215.53647 1414.3668,213.55171 1399.3771,220.41424 C 1392.9318,223.36499 1390.4908,226.85415 1390.4908,233.11627 C 1390.4908,242.89741 1396.3047,245.36095 1424.4908,247.5232 C 1447.0503,249.2538 1455.5872,250.52761 1462.9908,253.26785 C 1474.0888,257.37546 1480.4604,262.83214 1484.853,271.99081 C 1487.1878,276.85896 1487.4908,278.69949 1487.4908,288.01184 C 1487.4908,297.88097 1487.2875,298.94576 1484.2102,305.19666 C 1478.4649,316.86716 1466.1003,325.48162 1448.4908,330.0825 C 1438.2204,332.76589 1411.5581,333.59022 1399.3896,331.60059 z M 150.65748,331.32414 C 150.29081,330.95748 149.99081,299.45748 149.99081,261.32414 L 149.99081,191.99081 L 165.49081,191.99081 L 180.99081,191.99081 L 180.99081,261.99081 L 180.99081,331.99081 L 166.15748,331.99081 C 157.99914,331.99081 151.02414,331.69081 150.65748,331.32414 z M 267.99081,262.01686 L 267.99081,191.99081 L 283.49081,191.99081 L 298.99081,191.99081 L 298.99081,195.51113 L 298.99081,199.03146 L 303.24081,196.85452 C 317.26147,189.67283 343.58282,188.18413 359.86374,193.65199 C 374.34324,198.51485 387.00778,208.86311 392.31536,220.16835 C 397.30466,230.79568 397.49081,233.09119 397.49081,283.99081 L 397.49081,331.49081 L 382.24081,331.76686 L 366.99081,332.0429 L 366.97894,286.76686 C 366.96595,237.20038 366.65086,233.91961 361.24709,227.08618 C 359.68335,225.10873 355.7357,222.14847 352.47453,220.50782 C 347.27891,217.89398 345.25925,217.47724 336.15422,217.14019 C 318.64494,216.49205 308.19864,220.67669 302.30767,230.69865 L 299.49081,235.49081 L 298.99081,283.49081 L 298.49081,331.49081 L 283.24081,331.76686 L 267.99081,332.0429 L 267.99081,262.01686 z M 521.14693,330.9292 C 513.40289,329.90656 503.65284,325.48715 498.12712,320.49499 C 492.89857,315.77132 488.15395,306.17818 486.95966,297.91555 C 486.44891,294.38194 486.02198,274.50331 486.01092,253.74081 L 485.99081,215.99081 L 475.99081,215.99081 L 465.99081,215.99081 L 465.99081,203.99081 L 465.99081,191.99081 L 475.99081,191.99081 L 485.99081,191.99081 L 485.99081,171.99081 L 485.99081,151.99081 L 501.49081,151.99081 L 516.99081,151.99081 L 516.99081,171.99081 L 516.99081,191.99081 L 533.99081,191.99081 L 550.99081,191.99081 L 550.99081,203.99081 L 550.99081,215.99081 L 533.99081,215.99081 L 516.99081,215.99081 L 516.99081,256.04047 C 516.99081,300.58445 517.02799,300.85492 523.52511,303.56959 C 525.82685,304.53132 530.82606,304.99081 538.98772,304.99081 L 551.04886,304.99081 L 550.76984,318.24081 L 550.49081,331.49081 L 538.99081,331.62887 C 532.66581,331.70481 524.63607,331.38996 521.14693,330.9292 z M 624.99081,262.01686 L 624.99081,191.99081 L 640.49761,191.99081 L 656.00441,191.99081 L 655.74761,261.74081 L 655.49081,331.49081 L 640.24081,331.76686 L 624.99081,332.0429 L 624.99081,262.01686 z M 742.99081,261.99081 L 742.99081,191.99081 L 757.99081,191.99081 L 772.99081,191.99081 L 772.99081,195.43578 L 772.99081,198.88075 L 778.24081,196.57112 C 795.46976,188.9916 818.45763,188.23925 836.30997,194.67063 C 843.91378,197.40993 852.23144,202.27958 855.3958,205.84461 C 857.90138,208.66745 858.41824,208.58717 863.32251,204.61329 C 869.2427,199.81623 878.20662,195.44921 887.49081,192.83904 C 897.73508,189.95896 917.72138,189.71285 928.39038,192.33541 C 948.63958,197.31288 962.67898,209.65265 968.25148,227.37077 C 970.44188,234.33539 970.49078,235.54951 970.49078,282.99081 L 970.49078,331.49081 L 955.81118,331.76714 L 941.13158,332.04347 L 940.75708,285.26714 C 940.33878,233.01072 940.30068,232.70571 933.28488,225.48178 C 926.84968,218.85559 922.40958,217.50792 906.99078,217.50091 C 895.01384,217.49547 892.92673,217.75417 888.49081,219.79402 C 882.50084,222.54849 877.59403,227.05076 874.65318,232.49081 C 872.53523,236.40865 872.48492,237.47165 872.20405,284.24081 L 871.91728,331.99081 L 857.02429,331.99081 L 842.1313,331.99081 L 841.757,285.24081 C 841.33501,232.5346 841.34046,232.57575 833.7814,225.01669 C 827.7425,218.97779 819.22188,216.64378 805.20169,217.188 C 792.72308,217.67238 786.4603,219.87273 780.68224,225.80261 C 773.35879,233.31848 773.52511,232.0092 773.19514,284.74081 L 772.89947,331.99081 L 757.94514,331.99081 L 742.99081,331.99081 L 742.99081,261.99081 z M 1055.9908,261.99081 L 1055.9908,191.99081 L 1070.9908,191.99081 L 1085.9908,191.99081 L 1085.9908,261.99081 L 1085.9908,331.99081 L 1070.9908,331.99081 L 1055.9908,331.99081 L 1055.9908,261.99081 z M 1562.9908,261.99081 L 1562.9908,191.99081 L 1577.9908,191.99081 L 1592.9908,191.99081 L 1592.9908,261.99081 L 1592.9908,331.99081 L 1577.9908,331.99081 L 1562.9908,331.99081 L 1562.9908,261.99081 z M 1679.9908,262.01686 L 1679.9908,191.99081 L 1695.4908,191.99081 L 1710.9908,191.99081 L 1710.9908,195.51113 L 1710.9908,199.03146 L 1714.9176,197.02816 C 1728.2314,190.23593 1752.5177,188.34048 1768.4908,192.84695 C 1777.244,195.31648 1785.1635,199.34549 1791.7301,204.66985 L 1795.9694,208.10715 L 1802.5498,203.41143 C 1809.8379,198.21076 1819.6136,193.88178 1828.5967,191.87709 C 1838.2474,189.72341 1858.0478,190.20075 1867.29,192.8099 C 1888.3143,198.74523 1901.7123,211.30621 1906.4596,229.53236 C 1907.7322,234.41831 1907.9908,243.56551 1907.9908,283.70091 L 1907.9908,331.99081 L 1892.9908,331.99081 L 1877.9908,331.99081 L 1877.9908,286.17231 C 1877.9908,235.01 1877.7805,233.08449 1871.426,226.05077 C 1866.0052,220.05059 1859.4306,217.67913 1846.8629,217.19084 C 1830.0377,216.53714 1819.0329,220.95828 1813.3284,230.66321 L 1810.4908,235.49081 L 1809.9908,283.49081 L 1809.4908,331.49081 L 1794.2408,331.76686 L 1778.9908,332.0429 L 1778.9908,286.19836 C 1778.9908,235.00739 1778.781,233.08497 1772.426,226.05077 C 1767.0052,220.05059 1760.4306,217.67913 1747.8629,217.19084 C 1729.2063,216.46599 1718.4151,221.6151 1712.6545,233.99081 C 1711.8448,235.73034 1711.3387,250.93977 1710.9908,283.99081 L 1710.4908,331.49081 L 1695.2408,331.76686 L 1679.9908,332.0429 L 1679.9908,262.01686 z M 1993.9908,261.99081 L 1993.9908,191.99081 L 2008.9908,191.99081 L 2023.9908,191.99081 L 2023.9908,261.99081 L 2023.9908,331.99081 L 2008.9908,331.99081 L 1993.9908,331.99081 L 1993.9908,261.99081 z"
     id="path2384"
     style="fill:#000000" />
</svg>
