<?xml version="1.0" encoding="UTF-8" standalone="no"?>
<svg
   xmlns:dc="http://purl.org/dc/elements/1.1/"
   xmlns:cc="http://creativecommons.org/ns#"
   xmlns:rdf="http://www.w3.org/1999/02/22-rdf-syntax-ns#"
   xmlns:svg="http://www.w3.org/2000/svg"
   xmlns="http://www.w3.org/2000/svg"
   xmlns:sodipodi="http://sodipodi.sourceforge.net/DTD/sodipodi-0.dtd"
   xmlns:inkscape="http://www.inkscape.org/namespaces/inkscape"
   width="500"
   height="100.944"
   viewBox="0 0 132.29166 26.708101"
   version="1.1"
   id="svg1024"
   inkscape:version="1.0.2 (e86c870879, 2021-01-15, custom)"
   sodipodi:docname="nakd.svg">
  <defs
     id="defs1018">
    <clipPath
       clipPathUnits="userSpaceOnUse"
       id="clipPath903">
      <path
         d="M 0,0 H 1920 V 1080 H 0 Z"
         id="path901" />
    </clipPath>
  </defs>
  <sodipodi:namedview
     id="base"
     pagecolor="#ffffff"
     bordercolor="#666666"
     borderopacity="1.0"
     inkscape:pageopacity="0.0"
     inkscape:pageshadow="2"
     inkscape:zoom="0.7"
     inkscape:cx="188.57143"
     inkscape:cy="145.71429"
     inkscape:document-units="mm"
     inkscape:current-layer="layer1"
     inkscape:document-rotation="0"
     showgrid="false"
     units="px"
     inkscape:window-width="1294"
     inkscape:window-height="1041"
     inkscape:window-x="78"
     inkscape:window-y="0"
     inkscape:window-maximized="0" />
  <metadata
     id="metadata1021">
    <rdf:RDF>
      <cc:Work
         rdf:about="">
        <dc:format>image/svg+xml</dc:format>
        <dc:type
           rdf:resource="http://purl.org/dc/dcmitype/StillImage" />
        <dc:title></dc:title>
      </cc:Work>
    </rdf:RDF>
  </metadata>
  <g
     inkscape:label="Ebene 1"
     inkscape:groupmode="layer"
     id="layer1">
    <g
       id="g881"
       transform="matrix(0.45617739,0,0,-0.45617779,77.623596,0)">
      <path
         d="M 0,0 V -58.546 H 11.712 V -29.273 0 Z"
         style="fill:#000000;fill-opacity:1;fill-rule:nonzero;stroke:none"
         id="path883" />
    </g>
    <g
       id="g885"
       transform="matrix(0.45617739,0,0,-0.45617779,92.982223,0)">
      <path
         d="M 0,0 -21.958,-29.273 0,-58.546 H 13.169 L -8.785,-29.273 13.169,0 Z"
         style="fill:#000000;fill-opacity:1;fill-rule:nonzero;stroke:none"
         id="path887" />
    </g>
    <g
       id="g889"
       transform="matrix(0.45617739,0,0,-0.45617779,59.252245,15.356767)">
      <path
         d="M 0,0 H 20.377 V 8.785 H -3.51 Z"
         style="fill:#000000;fill-opacity:1;fill-rule:nonzero;stroke:none"
         id="path891" />
    </g>
    <g
       id="g893"
       transform="matrix(0.45617739,0,0,-0.45617779,16.024142,17.011783)">
      <path
         d="m 0,0 -24.243,37.292 h -10.884 v -58.546 h 11.712 V 16.042 L 0.82,-21.254 H 11.707 V 37.292 H 0 Z"
         style="fill:#000000;fill-opacity:1;fill-rule:nonzero;stroke:none"
         id="path895" />
    </g>
    <g
       id="g897"
       transform="matrix(0.45617739,0,0,-0.45617779,-151.90689,150.17888)">
      <g
         id="g899"
         clip-path="url(#clipPath903)">
        <g
           id="g905"
           transform="translate(593.7271,329.2097)">
          <path
             d="M 0,0 H -18.194 V -58.546 H 0 c 16.162,0 29.273,13.106 29.273,29.278 C 29.273,-13.102 16.162,0 0,0 m -0.976,-47.81 h -5.515 v 37.074 h 5.515 c 10.238,0 18.537,-8.295 18.537,-18.532 0,-10.247 -8.299,-18.542 -18.537,-18.542"
             style="fill:#000000;fill-opacity:1;fill-rule:nonzero;stroke:none"
             id="path907" />
        </g>
      </g>
    </g>
    <g
       id="g909"
       transform="matrix(0.45617739,0,0,-0.45617779,32.197454,26.707428)">
      <path
         d="M 0,0 H 11.707 L 23.415,29.273 35.122,0 H 46.838 L 23.415,58.546 Z"
         style="fill:#000000;fill-opacity:1;fill-rule:nonzero;stroke:none"
         id="path911" />
    </g>
  </g>
</svg>
