<?xml version="1.0" encoding="UTF-8" standalone="no"?>


<svg
   version="1.1"
   id="Capa_1"
   x="0px"
   y="0px"
   width="523.62402"
   height="118.72"
   viewBox="0 0 523.62402 118.72"
   enable-background="new 0 0 800 800"
   xml:space="preserve"
   sodipodi:docname="Oysho logo.svg"
   inkscape:version="1.1.1 (3bf5ae0d25, 2021-09-20)"
   xmlns:inkscape="http://www.inkscape.org/namespaces/inkscape"
   xmlns:sodipodi="http://sodipodi.sourceforge.net/DTD/sodipodi-0.dtd"
   xmlns="http://www.w3.org/2000/svg"
   xmlns:svg="http://www.w3.org/2000/svg"><defs
   id="defs17" /><sodipodi:namedview
   id="namedview15"
   pagecolor="#ffffff"
   bordercolor="#999999"
   borderopacity="1"
   inkscape:pageshadow="0"
   inkscape:pageopacity="0"
   inkscape:pagecheckerboard="0"
   showgrid="false"
   fit-margin-top="10"
   fit-margin-right="10"
   fit-margin-bottom="10"
   fit-margin-left="10"
   inkscape:zoom="0.89875"
   inkscape:cx="262.0306"
   inkscape:cy="59.527121"
   inkscape:window-width="1920"
   inkscape:window-height="1001"
   inkscape:window-x="-9"
   inkscape:window-y="-9"
   inkscape:window-maximized="1"
   inkscape:current-layer="Capa_1" />
<g
   id="g12"
   transform="translate(-138.188,-340.64)">
	<path
   fill="#1d1d1b"
   stroke="#ffffff"
   stroke-miterlimit="10"
   d="m 199.822,351.14 c -30.49,0 -51.134,21.402 -51.134,48.862 0,27.46 20.644,48.858 51.134,48.858 30.489,0 51.133,-21.398 51.133,-48.858 0,-27.46 -20.643,-48.862 -51.133,-48.862 z m 0,94.503 c -21.214,0 -35.418,-14.962 -35.418,-45.641 0,-30.683 14.204,-45.641 35.418,-45.641 21.209,0 35.412,14.958 35.412,45.641 0,30.679 -14.203,45.641 -35.412,45.641 z"
   id="path2" />
	<path
   fill="#1d1d1b"
   stroke="#ffffff"
   stroke-miterlimit="10"
   d="m 323.678,355.116 v 2.086 c 5.871,0.188 8.523,1.323 8.523,5.301 0,3.222 -2.275,7.197 -12.879,24.054 -5.764,9.035 -9.09,16.139 -10.089,18.377 -1.26,-3.873 -4.403,-11.638 -12.068,-24.251 -2.464,-4.165 -4.546,-7.194 -6.251,-9.847 -3.599,-5.493 -5.111,-8.333 -5.111,-10.039 0,-2.648 1.513,-3.029 5.87,-3.595 v -2.086 c 0,0 -7.957,0.192 -13.069,0.192 -13.067,0 -21.778,-0.57 -21.778,-0.57 v 2.083 c 9.28,1.327 14.581,5.115 29.731,29.165 9.851,16.286 11.555,21.968 11.744,29.355 v 3.028 c 0,9.658 0,15.909 -0.759,19.508 -0.946,4.547 -3.599,4.735 -9.469,5.301 v 2.087 c 2.271,-0.193 9.469,-0.759 16.475,-0.759 7.198,0 16.479,0.759 16.479,0.759 v -2.087 c -5.681,-0.565 -8.521,-0.754 -9.47,-5.301 -0.758,-3.599 -0.758,-9.85 -0.758,-19.508 v -3.787 c 0.377,-6.439 2.652,-12.311 11.176,-26.133 13.256,-21.401 19.126,-29.735 29.92,-31.629 v -2.083 c -2.271,0.188 -10.225,0.57 -18.558,0.57 -6.064,0.002 -9.659,-0.191 -9.659,-0.191 z"
   id="path4" />
	<path
   fill="#1d1d1b"
   stroke="#ffffff"
   stroke-miterlimit="10"
   d="m 497.912,354.738 v 2.083 c 5.869,0.569 8.522,0.758 9.469,5.304 0.754,3.6 0.754,10.035 0.754,19.697 v 14.77 h -50.186 v -14.77 c 0,-9.662 0,-16.098 0.758,-19.697 0.946,-4.546 3.788,-4.734 9.469,-5.304 v -2.083 c 0,0 -9.28,0.57 -16.475,0.57 -7.009,0 -14.203,-0.382 -16.479,-0.57 v 2.083 c 5.873,0.569 8.521,0.758 9.47,5.304 0.758,3.6 0.758,10.035 0.758,19.697 v 36.359 c 0,9.658 0,16.098 -0.758,19.696 -0.948,4.547 -3.597,4.735 -9.47,5.301 v 2.087 c 2.275,-0.193 9.47,-0.57 16.479,-0.57 7.194,0 16.475,0.57 16.475,0.57 v -2.087 c -5.681,-0.565 -8.522,-0.754 -9.469,-5.301 -0.758,-3.599 -0.758,-10.038 -0.758,-19.696 v -17.614 h 50.186 v 17.614 c 0,9.658 0,16.098 -0.754,19.696 -0.946,4.547 -3.6,4.735 -9.469,5.301 v 2.087 c 2.271,-0.193 9.469,-0.57 16.475,-0.57 7.197,0 16.475,0.57 16.475,0.57 v -2.087 c -5.682,-0.565 -8.523,-0.754 -9.47,-5.301 -0.754,-3.599 -0.754,-10.038 -0.754,-19.696 v -36.359 c 0,-9.662 0,-16.098 0.754,-19.697 0.946,-4.546 3.788,-4.734 9.47,-5.304 v -2.083 c 0,0 -9.277,0.57 -16.475,0.57 -7.006,0.001 -14.204,-0.381 -16.475,-0.57 z"
   id="path6" />
	<path
   fill="#1d1d1b"
   stroke="#ffffff"
   stroke-miterlimit="10"
   d="m 396.021,395.078 -10.038,-6.25 c -7.953,-5.112 -14.013,-9.658 -14.013,-18.939 0,-9.469 7.006,-15.339 17.423,-15.339 14.961,0 18.368,12.122 19.696,20.832 h 1.705 c 0,-1.136 0.377,-4.546 0.377,-9.28 0,-5.87 -0.377,-9.092 -0.377,-9.092 -1.139,-0.755 -8.522,-5.112 -20.644,-5.112 -17.613,0 -27.271,10.794 -27.271,23.861 0,9.658 4.164,18.938 17.42,27.084 l 10.039,6.247 c 7.953,4.927 14.774,10.039 14.774,19.508 0,11.552 -7.957,17.045 -18.938,17.045 -14.205,0 -20.267,-8.711 -23.866,-24.809 h -1.702 c -0.191,2.652 -0.381,5.493 -0.381,9.847 0,5.493 0.381,10.228 0.381,10.228 0.567,0.569 9.089,7.387 24.052,7.387 18.938,0 29.924,-10.417 29.924,-26.137 0.001,-11.176 -5.681,-19.128 -18.561,-27.081 z"
   id="path8" />
	<path
   fill="#1d1d1b"
   stroke="#ffffff"
   stroke-miterlimit="10"
   d="m 600.179,351.14 c -30.494,0 -51.134,21.402 -51.134,48.862 0,27.46 20.64,48.858 51.134,48.858 30.489,0 51.133,-21.398 51.133,-48.858 0,-27.46 -20.644,-48.862 -51.133,-48.862 z m 0,94.503 c -21.213,0 -35.417,-14.962 -35.417,-45.641 0,-30.683 14.204,-45.641 35.417,-45.641 21.209,0 35.412,14.958 35.412,45.641 0,30.679 -14.203,45.641 -35.412,45.641 z"
   id="path10" />
</g>
</svg>
