<svg xmlns="http://www.w3.org/2000/svg" height="800" width="1200" viewBox="-19.99998 -5.194225 173.33316 31.16535"><path d="M60.8468 17.3836c-.833.163-1.737.0562-2.461-.4063-.8453-.513-1.4089-1.4323-1.5162-2.413a4.7169 4.7169 0 01-.002-.6c.1235-1.1276.9692-2.1599 2.0853-2.4193 1.3715 1.5079 2.7428 3.0141 4.122 4.5141-.563.6802-1.3646 1.1516-2.2281 1.3245zm6.1921-1.9115c.047-.6187.0912-1.2448.2907-1.8385.2343-.7474.6484-1.5208 1.3864-1.8698.151-.0453.3073-.0781.4645-.0922.0016-.1422-.0072-.2864.0287-.426-.0427-.1953.0172-.3943-.0036-.5922-.0287-.2969-.025-.5953-.0167-.8932.0219-.3714-.0302-.751.0203-1.1193-.0219-.0933-.0287-.1875-.0307-.2818-.9166-.0088-1.8313.2464-2.6202.7094-1.1891.698-2.0887 1.888-2.4027 3.236-1.7735-1.913-3.513-3.8569-5.2817-5.773-.3762-.4235-.5428-1.0099-.4704-1.5683.112-.6036.4928-1.1604 1.0494-1.4358.3715-.2042.809-.2355 1.2224-.1834.6371.1047 1.1882.5578 1.4496 1.1443.9843-.511 1.99-.9833 2.9703-1.5057-.1699-.3183-.347-.635-.5699-.9194-.979-1.2937-2.5848-2.101-4.2124-2.0618-1.8824-.032-3.7141 1.0749-4.6005 2.7285-.5615 1.0183-.7699 2.2267-.5765 3.373.1702 1.0687.6833 2.0791 1.4457 2.8453-.8828.5229-1.639 1.2625-2.1681 2.1427-.6084 1.0026-.911 2.1833-.8762 3.3541.0371 1.1547.3787 2.3021.998 3.2787.9239 1.487 2.475 2.5661 4.1911 2.9167.874.1823 1.7813.1718 2.661.0286 1.4985-.2766 2.8895-1.0406 3.9505-2.1318.4422.5094.9084.9974 1.3598 1.499 1.5011-.0026 3.0027.0062 4.5043-.0042-1.3937-1.514-2.7776-3.0375-4.163-4.5599M7.4134 10.7534c-.5625.6005-1.3562.9442-2.1677 1.0354-.5833.0245-1.1672.0062-1.751.0115V3.743c.6849.0172 1.3828-.0594 2.0541.1109.811.1781 1.5641.6224 2.088 1.2688 1.3 1.5921 1.2006 4.1479-.2234 5.6307zM11.791 6.017c-.3724-1.624-1.2974-3.1334-2.6406-4.132C7.8655.9165 6.2473.4457 4.6484.4384c-1.5496.0005-3.099 0-4.648 0-.0005 6.5333-.0005 13.065 0 19.5979h3.4943c0-1.6354-.0006-3.2714 0-4.9063.8359-.0161 1.6791.048 2.5093-.077 1.361-.1912 2.66-.81 3.6532-1.7605 1.3317-1.2536 2.1395-3.0208 2.3057-4.8338.0417-.8172.0286-1.6438-.1719-2.4416M25.7515.4388c1.1749-.0005 2.35.001 3.5249-.0005.0079.1088.0147.2177.0177.327-.0025.2167-.0016.4334-.0025.6511.0004.2167.002.4339 0 .651 0 .3157.002.6313 0 .9469.0004.099.0004.198.001.297-.014.4734.0067.9473-.001 1.4213.0052.6516-.013 1.3025 0 1.9536.003 1.0073.0004 2.014 0 3.0203.0004.1771 0 .3542.002.5328a5.6593 5.6593 0 000 .6521c-.002.1578-.0016.3151-.0016.473-.0233.6874.033 1.376-.039 2.0619-.1015 1.1865-.425 2.3635-1.0162 3.4-.6047 1.073-1.503 1.9776-2.576 2.5823-1.1973.6792-2.5844.987-3.9547.987-1.5245.0166-3.075-.348-4.3693-1.1719-1.2452-.7828-2.2063-1.9875-2.7375-3.3557-.4406-1.1084-.6104-2.31-.6016-3.4974.0006-3.9771 0-7.9542 0-11.9318 1.1839-.0005 2.3678-.0005 3.5516-.0005.0006 4.0588 0 8.1166.0006 12.1745.0354 1.138.2802 2.34 1.0421 3.224.6235.7395 1.575 1.1338 2.5256 1.2082.9907.0974 2.0484-.0364 2.9036-.5765.687-.4323 1.1584-1.1422 1.4073-1.9042.1911-.5505.2615-1.1328.3088-1.7104.0308-1.4245.0047-2.849.0131-4.2745 0-2.7124 0-5.4271.001-8.1406m16.9021.0036c1.1761-.0077 2.3521-.002 3.527-.0041.0011 5.4079 0 10.814.0011 16.2203 2.0115.0026 4.024-.0057 6.036.0036-.0016 1.124-.001 2.2474 0 3.3714-3.1885.0052-6.376.0052-9.5636 0 0-6.5302 0-13.061-.0005-19.5912m38.9349 14.3615c-.0885.464-.3401.9016-.7161 1.1906-.447.3568-1.0052.535-1.5584.6339-1.0614.1755-2.1406.0849-3.2114.1078.0015-1.7-.001-3.4005.0015-5.1.7985.0052 1.5964-.014 2.3943.013.774.0484 1.5822.1656 2.2376.6068.4645.2995.7796.8073.8629 1.3516a3.731 3.731 0 01-.0104 1.1963zM76.1025 3.6336c.7854.011 1.5771-.0428 2.3558.0927.5588.1032 1.1285.3235 1.5061.7672.3568.426.4745 1 .461 1.5437.0135.6172-.1911 1.2662-.66 1.6854-.4947.437-1.165.6063-1.8082.6532-.6188.0135-1.236.002-1.8547.0057V3.6336zm8.5911 8.111c-.4801-.999-1.337-1.7933-2.3281-2.2746a1.0078 1.0078 0 00.0104-.0588c.7229-.6297 1.2464-1.4896 1.4485-2.4292.152-.6828.1172-1.3912.0088-2.0781-.1396-.6697-.3907-1.3203-.7708-1.891-.5485-.8278-1.3333-1.4897-2.224-1.924-.7161-.334-1.5025-.4735-2.2812-.5678-.474-.0333-.947-.0719-1.421-.0803-1.514-.0057-3.0295-.0004-4.5451-.0025v19.5979c2.2265-.011 4.453.023 6.6781-.0172 1.5796-.1302 3.1541-.7385 4.2957-1.8594.8871-.8437 1.486-1.9906 1.6339-3.2083.1095-1.086-.0219-2.2187-.5052-3.2068M87.0972.4383c4.0147 0 8.0287 0 12.0423.0005-.0016 1.1016.0052 2.203-.0032 3.3047-2.8395.0021-5.6791-.0068-8.5192.0047a2232.143 2232.143 0 010 4.6291c2.6953.0105 5.3906.0016 8.0858.0042.0011 1.085 0 2.1703.0011 3.2537-2.6953.0036-5.3901-.0026-8.0853.0036-.0016 1.6969.0009 3.3948-.0016 5.0922 2.8401.012 5.6806.0016 8.5224.0052.001 1.1005 0 2.1995 0 3.3H87.0972V.4382m20.0163 11.185c.7858-1.9698 1.5765-3.9375 2.3509-5.9114.7839 1.9687 1.5548 3.9431 2.3453 5.9103a784.3462 784.3462 0 01-4.6962.001zM110.8687.483c-.0199-.1032-.1438-.0792-.2152-.0844-.7943.0021-1.5886.0021-2.3812 0-.0755.0088-.1875-.0213-.2246.0625-2.6614 6.5244-5.3265 13.0484-7.9864 19.5734 1.264.0042 2.5287.0016 3.7927.0016.6615-1.6984 1.3193-3.399 1.9792-5.098 2.4183.0016 4.836 0 7.2536.0016.6595 1.699 1.3125 3.401 1.977 5.0974 1.3475-.0036 2.6949.0026 4.0429-.0036-2.7448-6.5172-5.4923-13.0338-8.238-19.5505m17.6583 7.2709c-.1807.638-.6069 1.2026-1.1798 1.5385-.8301.5-1.829.6224-2.7823.6214-.3697-.0016-.7385-.0016-1.1066-.0016V3.743c1.0041.0046 2.0244-.0568 3.0061.2078.4219.1244.8401.2864 1.197.55.4573.3203.7775.8156.913 1.3547.152.6224.1244 1.2833-.0475 1.8984zm2.9469 9.0818c-.8267-1.5604-1.6172-3.1422-2.3386-4.7542.5651-.3177 1.0896-.712 1.538-1.1833.5714-.5797.9776-1.3021 1.2459-2.0677.5547-1.7255.4947-3.7094-.4105-5.3067-.4124-.722-1.0052-1.3366-1.7004-1.7923-1.0464-.6995-2.286-1.0464-3.522-1.212-.4359-.0344-.8698-.0859-1.3058-.0812-1.6837.0021-3.3661-.0027-5.05.0025.0016 6.5314.0016 13.0626 0 19.5938 1.1778.0026 2.3516.0042 3.5278 0V13.453c.1118-.0016.2254-.0026.3394-.0079.2891-.0421.5834-.0224.874-.0614.2995-.025.5938-.0844.8943-.1.1256.3281.2865.6406.4312.9594a87.6576 87.6576 0 002.9548 5.789c1.461.0094 2.9203.0052 4.3812.0016-.6615-1.0417-1.276-2.1125-1.8593-3.198M31.667.4383h3.5198c0 5.4068-.001 10.814 0 16.2203h6.0292c0 1.126.0005 2.2526 0 3.3776h-9.549c-.0005-6.5318 0-13.0646 0-19.598" fill="#161413"/></svg>