<svg xmlns="http://www.w3.org/2000/svg" height="800" width="1200" id="svg122" version="1.1" viewBox="-64.0428 -26.21775 555.0376 157.3065"><defs id="defs80"><style id="style78">.cls-1{fill:#1d1d1b}</style></defs><path id="path84" d="M48.93 69.28l-.46-11.68h1.45l4.73 10.57a8 8 0 002.33 1.56 7.48 7.48 0 003.17.65 6.6 6.6 0 005.11-2 7.78 7.78 0 001.83-5.49 5.53 5.53 0 00-1.26-3.7 9.79 9.79 0 00-4.08-2.55l-5-1.91q-7.79-2.9-7.79-10.46a10.12 10.12 0 012-6.14 13.07 13.07 0 015.53-4.23 20 20 0 018-1.53 23.29 23.29 0 019.92 2.44l-.14 10.43h-1.3l-4.28-9.31a8 8 0 00-5.11-1.91 5.48 5.48 0 00-4.35 1.83 7.76 7.76 0 00-1.6 5.32 4.16 4.16 0 001.33 3.28 12.13 12.13 0 004.24 2.52l4 1.6a18.75 18.75 0 016.8 4.16 8.64 8.64 0 012.06 6.07 11.08 11.08 0 01-2.21 6.79 14.51 14.51 0 01-6 4.62 20.12 20.12 0 01-8.17 1.64 27.34 27.34 0 01-10.84-2.52" class="cls-1"/><path id="path86" d="M84.67 69.05q-2.17-2.52-2.1-7.33l.23-24.55h-5.65v-1.93l5.65-1.76 7.86-9.46h1.6v9.69h10.76v3.59H92.26v25.8a5.45 5.45 0 002.22 3.4 7.5 7.5 0 004.12 1 14.73 14.73 0 004.65-.84l.46.92a21 21 0 01-12 4q-4.88 0-7.06-2.52" class="cls-1"/><path id="path88" d="M109.69 68.29V40.35l-4.66-2.9v-.68l13.05-4.2h.38l.38 10h.3l1-2a23.41 23.41 0 014.39-6.3 6.76 6.76 0 014.62-1.72 5.34 5.34 0 013.62 1.3 4.43 4.43 0 011.49 3.51q0 4.51-5.19 5.65l-4.72-3.84a7 7 0 00-2.67 2.1 11.43 11.43 0 00-2.3 3.9v23.12l6.33 1.14v1.15h-20.68v-1.15z" class="cls-1"/><path id="path90" d="M155.29 63.48V51.17l-5 1.68a9 9 0 00-4.5 2.75 7.89 7.89 0 00.07 9 5 5 0 004 1.75 6.76 6.76 0 005.42-2.9m-17.47 5.72a8.64 8.64 0 01-2.82-6.79 8.48 8.48 0 013.09-6.95q3.09-2.52 9.81-4.2l7.4-1.83v-5.08q0-4.73-1.76-7.29a5.54 5.54 0 00-4.81-2.56 6.54 6.54 0 00-3.89 1.14l-.3 9.77a12.28 12.28 0 01-4.2.69 4.77 4.77 0 01-3.17-1 3.48 3.48 0 01-1.18-2.83q0-2.13 2.37-4.39a18.68 18.68 0 016.23-3.68 22.87 22.87 0 018.24-1.49q6.11 0 9.08 2.79 2.97 2.79 3 8.82V65a2.8 2.8 0 00.54 2 3.11 3.11 0 002.06.5h3.28v1.07c-.25.15-.87.46-1.83.91a30.11 30.11 0 01-3.4 1.34 11.6 11.6 0 01-3.63.65 6.45 6.45 0 01-4.62-1.49 6.56 6.56 0 01-1.72-4.59h-.39a22.6 22.6 0 01-4.69 4.69 10.86 10.86 0 01-12.69-.91" class="cls-1"/><path id="path92" d="M196.58 65V38.9q-2.14-3.51-7.48-3.51a7.85 7.85 0 00-6.52 3.55q-2.59 3.55-2.59 11a26 26 0 001.33 8.47 14.83 14.83 0 003.86 6.22 8.57 8.57 0 006 2.33 9.73 9.73 0 005.4-1.96m9.62-51.44v53.88l4.81.61v1.12l-13.27 2.4-.84-5q-5.12 5.27-11 5.27a14.29 14.29 0 01-8.21-2.4 15.64 15.64 0 01-5.46-6.49 20.89 20.89 0 01-1.91-9 19.77 19.77 0 013.05-10.88 21.39 21.39 0 018.05-7.44 22.12 22.12 0 0110.57-2.67 19.59 19.59 0 014.58.69V19.9l-5.88-1.68v-.91z" class="cls-1"/><path id="path94" d="M218.49 23.6a5.39 5.39 0 010-7.82 5.35 5.35 0 013.89-1.68 5.47 5.47 0 013.93 1.68 5.35 5.35 0 010 7.82 5.49 5.49 0 01-4 1.64 5.41 5.41 0 01-3.89-1.64m-.62 44.57V39.82l-4.66-2.36v-.92l14.35-3.89v35.52l5 1.3v1.15h-19.5v-1.19z" class="cls-1"/><path transform="translate(-19.42 -4.83)" id="polygon96" class="cls-1" d="M249.78 38.54h19.39v.96l-5.19 1.28 7.93 23.26.92 2.97h.15l.77-2.14 8.17-23.73-5.88-1.45v-1.15h12.82v1.15l-3.81 1.14-13.74 35.8h-4.05l-13.51-35.72-3.97-1.22z"/><path id="path98" d="M288.9 63.48V51.17l-5 1.68a9 9 0 00-4.5 2.75 7.89 7.89 0 00.08 9 5 5 0 004 1.75 6.75 6.75 0 005.42-2.9m-17.48 5.72a8.64 8.64 0 01-2.84-6.76 8.46 8.46 0 013.09-6.95q3.09-2.52 9.81-4.2l7.41-1.83v-5.11q0-4.73-1.76-7.29a5.53 5.53 0 00-4.81-2.56 6.54 6.54 0 00-3.89 1.14l-.3 9.77a12.24 12.24 0 01-4.2.69 4.77 4.77 0 01-3.16-1 3.48 3.48 0 01-1.19-2.81q0-2.13 2.36-4.39a18.67 18.67 0 016.27-3.7 22.86 22.86 0 018.24-1.49q6.1 0 9.09 2.79t3 8.82V65a2.79 2.79 0 00.54 2 3.11 3.11 0 002.06.5h3.28v1.07c-.26.15-.86.46-1.83.91a30.09 30.09 0 01-3.4 1.34 11.55 11.55 0 01-3.62.65 6.45 6.45 0 01-4.62-1.49 6.56 6.56 0 01-1.72-4.62h-.38a22.65 22.65 0 01-4.69 4.69 10.87 10.87 0 01-12.74-.88" class="cls-1"/><path id="path100" d="M310.34 68.29V40.35l-4.66-2.9v-.68l13.05-4.2h.38l.38 10h.31l1-2a23.4 23.4 0 014.39-6.3 6.74 6.74 0 014.62-1.72 5.33 5.33 0 013.62 1.3 4.42 4.42 0 011.49 3.51q0 4.51-5.19 5.65l-4.74-3.84a7 7 0 00-2.67 2.1 11.39 11.39 0 00-2.29 3.9v23.12l6.33 1.3v1h-20.68v-1z" class="cls-1"/><path id="path102" d="M341.58 23.6a5.4 5.4 0 010-7.82 5.34 5.34 0 013.89-1.68 5.47 5.47 0 013.93 1.68 5.35 5.35 0 010 7.82 5.5 5.5 0 01-4 1.64 5.4 5.4 0 01-3.82-1.64m-.72 44.57V39.82l-4.66-2.36v-.92l14.38-3.9v35.53l5 1.3v1.15h-19.53v-1.19z" class="cls-1"/><path id="path104" d="M376.88 69.85a13.13 13.13 0 01-6.95 1.95 10.52 10.52 0 01-7.9-3q-2.94-3-2.94-8.89V38.6l-4.73-2.06v-1l14.35-2.44v25.49q0 7.79 6.79 7.78a10.83 10.83 0 006.79-2.52v-25.4l-5.19-1.91v-1.07l14.88-2.52v34l5.11 1.37v1.14l-13.8 2.11-.84-6.26a25.09 25.09 0 01-5.57 4.54" class="cls-1"/><path id="path106" d="M399.83 69.28l-.46-11.68h1.45l4.76 10.57a8 8 0 002.33 1.56 7.47 7.47 0 003.17.65 6.6 6.6 0 005.11-2 7.78 7.78 0 001.83-5.49 5.54 5.54 0 00-1.26-3.7 9.79 9.79 0 00-4.08-2.55l-5-1.91q-7.78-2.9-7.78-10.46a10.12 10.12 0 012-6.14 13.06 13.06 0 015.53-4.23 20 20 0 018-1.53 23.29 23.29 0 019.92 2.44l-.08 10.38h-1.3l-4.39-9.26a8 8 0 00-5.11-1.91 5.49 5.49 0 00-4.35 1.83 7.76 7.76 0 00-1.6 5.27 4.16 4.16 0 001.33 3.28 12.16 12.16 0 004.24 2.52l4 1.6a18.67 18.67 0 016.79 4.16 8.64 8.64 0 012.06 6.07 11.09 11.09 0 01-2.21 6.79 14.51 14.51 0 01-6 4.62 20.11 20.11 0 01-8.17 1.64 27.33 27.33 0 01-10.84-2.52" class="cls-1"/><path id="path116" d="M50.14 66.6c-4.37 8.84-12 14.81-20.67 15.22a91.29 91.29 0 00.25-10.16v-.37c0-.38.14-.4.47-.51l1.25-.39a15.76 15.76 0 009.34-7.43c1.85-3.43 2.5-7.91 0-10.94a8.32 8.32 0 00-5.52-2.85c-1.15-.1-3.37 0-3.77 1.27-.34 1.13.48 1.78 1.31 2.24 1.43.79 2.29 1.47 2.3 3.09a6.12 6.12 0 01-2.31 4.55 5.58 5.58 0 01-1.72 1c-.62.21-1.34.31-1.34-.38V47.92c0-2.65.47-3.51 1.77-5.77 2.3-4 5.23-9.24 6.89-13.06a23.19 23.19 0 002-8.87c8.19 5.47 13.69 16.37 13.69 28.95v1.68a5.68 5.68 0 012.9.81v-2.5c0-14.54-6.94-27.05-16.91-32.62a23.14 23.14 0 00-2.29-6.81c-1.2-2.56-4.72-7.27-7.03-9.04a2.56 2.56 0 00-3.17-.26 2.15 2.15 0 00-.86 1.74v11.4C11.81 14.69 0 30.17 0 49.17c0 17.7 10.29 32.4 23.79 35.22q-.21.67-.42 1.3c-1.1 3.26-3.88 10.37-8.42 10.39a1.57 1.57 0 01-1.81-1.5 2 2 0 01.44-1.22 3.58 3.58 0 013-1.22 2.52 2.52 0 002-.36 1.15 1.15 0 000-1.74 5.87 5.87 0 00-3.4-.87c-4.2 0-9.24 3.2-9.29 7.85-.06 5.47 5.19 7.87 9.8 7.85 5.71 0 9.57-3.5 11.31-8.77a55.84 55.84 0 002.06-10.38l.1-.84c10-.27 18.68-6.93 23.61-16.84a6.19 6.19 0 01-2.63-1.44zM29.73 10.22a.46.46 0 01.42-.54c.52 0 1 1 1.85 2.69q.36.73.65 1.44a23.16 23.16 0 00-2.92-.34zm0 6.29a20.3 20.3 0 014 .64 21.65 21.65 0 01-1.47 13.68 31.35 31.35 0 01-1.56 3.27.53.53 0 01-.62.4.47.47 0 01-.35-.46zm-3 34.35v10.31a.32.32 0 01-.18.3.33.33 0 01-.44-.15 8.73 8.73 0 01-.71-2 17 17 0 01.78-9.15.28.28 0 01.29-.18.49.49 0 01.24.54c.01.11.01.22.01.33zm0-12.05c0 2.45-1.56 4.49-3.06 6.31-3.34 4-5.71 7.81-6.14 12.91-.44 5.25 1.39 10.58 6.84 12.4a14.75 14.75 0 001.76.44c.28 0 .62.06.59.44 0 .1 0 .21-.06.36-.5 3.05-1.18 6.53-2 9.8-12.3-2.42-21.68-15.97-21.68-32.3 0-17.27 10.47-31.41 23.74-32.6v22.24z" class="cls-1"/></svg>