<?xml version="1.0" encoding="UTF-8" standalone="no"?>
<!-- Created with Inkscape (http://www.inkscape.org/) -->

<svg
   xmlns:dc="http://purl.org/dc/elements/1.1/"
   xmlns:cc="http://creativecommons.org/ns#"
   xmlns:rdf="http://www.w3.org/1999/02/22-rdf-syntax-ns#"
   xmlns:svg="http://www.w3.org/2000/svg"
   xmlns="http://www.w3.org/2000/svg"
   xmlns:sodipodi="http://sodipodi.sourceforge.net/DTD/sodipodi-0.dtd"
   xmlns:inkscape="http://www.inkscape.org/namespaces/inkscape"
   version="1.1"
   id="svg2833"
   xml:space="preserve"
   width="148mm"
   height="40mm"
   viewBox="0 0 559.37007 151.1811"
   sodipodi:docname="WUT.svg"
   inkscape:version="0.92.4 (5da689c313, 2019-01-14)"><metadata
     id="metadata2839"><rdf:RDF><cc:Work
         rdf:about=""><dc:format>image/svg+xml</dc:format><dc:type
           rdf:resource="http://purl.org/dc/dcmitype/StillImage" /><dc:title></dc:title></cc:Work></rdf:RDF></metadata><defs
     id="defs2837"><clipPath
       clipPathUnits="userSpaceOnUse"
       id="clipPath2859"><path
         d="M 87.945,250.061 H 409.51 v 61.706 H 87.945 Z"
         id="path2857"
         inkscape:connector-curvature="0" /></clipPath><clipPath
       clipPathUnits="userSpaceOnUse"
       id="clipPath3175"><path
         d="M 88.945,35.999 H 321.24 V 97.705 H 88.945 Z"
         id="path3173"
         inkscape:connector-curvature="0" /></clipPath><clipPath
       clipPathUnits="userSpaceOnUse"
       id="clipPath3379"><path
         d="m 46,356.382 h 331.087 v 61.706 H 46 Z"
         id="path3377"
         inkscape:connector-curvature="0" /></clipPath><clipPath
       clipPathUnits="userSpaceOnUse"
       id="clipPath3637"><path
         d="M 442.945,450.31 H 755.2 v 86.494 H 442.945 Z"
         id="path3635"
         inkscape:connector-curvature="0" /></clipPath><clipPath
       clipPathUnits="userSpaceOnUse"
       id="clipPath3991"><path
         d="m 117.945,142.322 h 299.126 v 63.122 H 117.945 Z"
         id="path3989"
         inkscape:connector-curvature="0" /></clipPath><clipPath
       clipPathUnits="userSpaceOnUse"
       id="clipPath4299"><path
         d="M 441.945,356.224 H 683.41 v 61.864 H 441.945 Z"
         id="path4297"
         inkscape:connector-curvature="0" /></clipPath><clipPath
       clipPathUnits="userSpaceOnUse"
       id="clipPath4489"><path
         d="m 450.945,250.037 h 233.617 v 61.729 H 450.945 Z"
         id="path4487"
         inkscape:connector-curvature="0" /></clipPath><clipPath
       clipPathUnits="userSpaceOnUse"
       id="clipPath4547"><path
         d="m 94.554,462.705 h 313.013 v 61.704 H 94.554 Z"
         id="path4545"
         inkscape:connector-curvature="0" /></clipPath><clipPath
       clipPathUnits="userSpaceOnUse"
       id="clipPath4861"><path
         d="m 445.945,23.862 h 294.498 v 86.619 H 445.945 Z"
         id="path4859"
         inkscape:connector-curvature="0" /></clipPath><clipPath
       clipPathUnits="userSpaceOnUse"
       id="clipPath5145"><path
         d="m 445.945,130.891 h 366.406 v 86.62 H 445.945 Z"
         id="path5143"
         inkscape:connector-curvature="0" /></clipPath></defs><sodipodi:namedview
     pagecolor="#ffffff"
     bordercolor="#666666"
     borderopacity="1"
     objecttolerance="10"
     gridtolerance="10"
     guidetolerance="10"
     inkscape:pageopacity="0"
     inkscape:pageshadow="2"
     inkscape:window-width="1920"
     inkscape:window-height="1051"
     id="namedview2835"
     showgrid="false"
     units="mm"
     height="40mm"
     inkscape:zoom="0.84100751"
     inkscape:cx="117.11628"
     inkscape:cy="254.09329"
     inkscape:window-x="-9"
     inkscape:window-y="-9"
     inkscape:window-maximized="1"
     inkscape:current-layer="g2841" /><g
     id="g2841"
     inkscape:groupmode="layer"
     inkscape:label="PW-ksiega znaku_06-2018"
     transform="matrix(1.3333333,0,0,-1.3333333,0,151.18108)"><path
       d="m 122.21571,84.345327 h 3.95 v 3.038 h -3.95 z m -6.035,-12.915 h 3.321 v 15.953 h -3.321 z m 6.035,6.425 h 2.822 v 2.843 h -2.822 z"
       style="fill:#313445;fill-opacity:1;fill-rule:nonzero;stroke:none"
       id="path2851"
       inkscape:connector-curvature="0" /><g
       id="g2853"
       inkscape:export-xdpi="96"
       inkscape:export-ydpi="96"
       transform="translate(-36.563289,-223.83867)"><g
         id="g2855"
         clip-path="url(#clipPath2859)"><g
           id="g2861"
           transform="translate(166.9829,300.7613)"><path
             d="m 0,0 c 0,-1.802 0.955,-2.909 2.366,-2.909 1.085,0 1.714,0.586 2.192,1.367 V 1.562 C 4.08,2.344 3.451,2.93 2.366,2.93 0.955,2.93 0,1.802 0,0 M 4.732,4.276 4.884,5.513 H 7.77 V -5.491 H 4.884 L 4.732,-4.276 C 4.167,-5.057 3.125,-5.709 1.584,-5.709 c -2.908,0 -4.84,2.41 -4.84,5.709 0,3.299 1.932,5.73 4.84,5.73 1.541,0 2.583,-0.651 3.148,-1.454"
             style="fill:#313445;fill-opacity:1;fill-rule:nonzero;stroke:none"
             id="path2863"
             inkscape:connector-curvature="0" /></g><g
           id="g2865"
           transform="translate(187.3642,303.9518)"><path
             d="m 0,0 -2.236,-1.65 c -0.456,0.826 -1.172,1.411 -2.257,1.411 -1.606,0 -2.497,-1.302 -2.497,-2.952 0,-1.628 0.912,-2.93 2.519,-2.93 1.085,0 1.823,0.586 2.322,1.411 l 2.17,-1.585 C -0.912,-7.901 -2.475,-8.9 -4.537,-8.9 c -3.321,0 -5.686,2.41 -5.686,5.709 0,3.3 2.365,5.73 5.686,5.73 C -2.475,2.539 -0.999,1.585 0,0"
             style="fill:#313445;fill-opacity:1;fill-rule:nonzero;stroke:none"
             id="path2867"
             inkscape:connector-curvature="0" /></g><g
           id="g2869"
           transform="translate(199.4756,295.2696)"><path
             d="m 0,0 h -2.887 l -0.13,1.194 c -0.608,-0.803 -1.607,-1.411 -3.213,-1.411 -2.583,0 -3.95,1.889 -3.95,4.841 v 6.381 h 3.212 V 4.797 c 0,-1.194 0.586,-1.997 1.671,-1.997 1.042,0 1.65,0.63 2.084,1.281 v 6.924 H 0 Z"
             style="fill:#313445;fill-opacity:1;fill-rule:nonzero;stroke:none"
             id="path2871"
             inkscape:connector-curvature="0" /></g><path
           d="m 205.835,295.27 h -3.212 v 16.496 h 3.212 z"
           style="fill:#313445;fill-opacity:1;fill-rule:nonzero;stroke:none"
           id="path2873"
           inkscape:connector-curvature="0" /><g
           id="g2875"
           transform="translate(212.9971,306.2745)"><path
             d="M 0,0 H 3.147 V -2.714 H 0 v -4.145 c 0,-0.934 0.586,-1.498 1.476,-1.498 0.673,0 1.107,0.195 1.432,0.348 l 0.803,-2.54 c -0.564,-0.369 -1.389,-0.673 -2.517,-0.673 -2.714,0 -4.407,1.541 -4.407,4.32 v 4.188 H -5.187 V 0 h 1.974 V 3.647 H 0 Z"
             style="fill:#313445;fill-opacity:1;fill-rule:nonzero;stroke:none"
             id="path2877"
             inkscape:connector-curvature="0" /></g><g
           id="g2879"
           transform="translate(220.8974,290.2774)"><path
             d="m 0,0 h -3.669 l 4.407,7.771 -4.363,8.226 h 3.516 l 2.54,-5.513 2.604,5.513 h 3.517 z"
             style="fill:#313445;fill-opacity:1;fill-rule:nonzero;stroke:none"
             id="path2881"
             inkscape:connector-curvature="0" /></g><g
           id="g2883"
           transform="translate(237.9355,300.7393)"><path
             d="m 0,0 c 0,-1.693 1.041,-2.887 2.539,-2.887 1.519,0 2.583,1.194 2.583,2.887 0,1.736 -1.064,2.952 -2.583,2.952 C 1.041,2.952 0,1.736 0,0 m 8.356,0 c 0,-3.3 -2.474,-5.687 -5.817,-5.687 -3.342,0 -5.795,2.387 -5.795,5.687 0,3.299 2.453,5.752 5.795,5.752 3.343,0 5.817,-2.453 5.817,-5.752"
             style="fill:#313445;fill-opacity:1;fill-rule:nonzero;stroke:none"
             id="path2885"
             inkscape:connector-curvature="0" /></g><g
           id="g2887"
           transform="translate(256.5801,311.0714)"><path
             d="m 0,0 -1.15,-2.562 c -0.26,0.261 -0.694,0.456 -1.237,0.456 -0.869,0 -1.346,-0.586 -1.346,-1.563 v -1.128 h 2.452 V -7.51 h -2.452 v -8.292 h -3.213 v 8.292 h -1.91 v 2.713 h 1.91 v 0.955 c 0,2.648 1.672,4.536 4.385,4.536 C -1.476,0.694 -0.608,0.434 0,0"
             style="fill:#313445;fill-opacity:1;fill-rule:nonzero;stroke:none"
             id="path2889"
             inkscape:connector-curvature="0" /></g><g
           id="g2891"
           transform="translate(275.9404,306.9474)"><path
             d="M 0,0 3.234,4.558 H 3.321 V -11.678 H 0 Z m -9.443,-4.992 v -6.686 h -3.32 V 4.558 h 0.086 l 9.833,-13.827 -1.779,-2.626 h -0.174 z"
             style="fill:#313445;fill-opacity:1;fill-rule:nonzero;stroke:none"
             id="path2893"
             inkscape:connector-curvature="0" /></g><g
           id="g2895"
           transform="translate(285.208,300.7613)"><path
             d="m 0,0 c 0,-1.802 0.955,-2.909 2.365,-2.909 1.086,0 1.715,0.586 2.193,1.367 V 1.562 C 4.08,2.344 3.451,2.93 2.365,2.93 0.955,2.93 0,1.802 0,0 M 4.731,4.276 4.884,5.513 H 7.77 V -5.491 H 4.884 L 4.731,-4.276 C 4.167,-5.057 3.125,-5.709 1.584,-5.709 c -2.908,0 -4.84,2.41 -4.84,5.709 0,3.299 1.932,5.73 4.84,5.73 1.541,0 2.583,-0.651 3.147,-1.454"
             style="fill:#313445;fill-opacity:1;fill-rule:nonzero;stroke:none"
             id="path2897"
             inkscape:connector-curvature="0" /></g><g
           id="g2899"
           transform="translate(300.1407,306.2745)"><path
             d="M 0,0 H 3.147 V -2.714 H 0 v -4.145 c 0,-0.934 0.586,-1.498 1.476,-1.498 0.673,0 1.107,0.195 1.432,0.348 l 0.803,-2.54 c -0.564,-0.369 -1.389,-0.673 -2.517,-0.673 -2.714,0 -4.407,1.541 -4.407,4.32 v 4.188 H -5.187 V 0 h 1.974 V 3.647 H 0 Z"
             style="fill:#313445;fill-opacity:1;fill-rule:nonzero;stroke:none"
             id="path2901"
             inkscape:connector-curvature="0" /></g><g
           id="g2903"
           transform="translate(308.9746,305.2975)"><path
             d="m 0,0 c 0.629,0.695 1.541,1.194 2.93,1.194 2.691,0 4.124,-1.911 4.124,-4.884 v -6.338 H 3.842 v 6.165 c 0,1.215 -0.673,2.04 -1.78,2.04 -0.999,0 -1.65,-0.63 -2.062,-1.28 v -6.925 H -3.213 V 6.468 H 0 Z"
             style="fill:#313445;fill-opacity:1;fill-rule:nonzero;stroke:none"
             id="path2905"
             inkscape:connector-curvature="0" /></g><g
           id="g2907"
           transform="translate(321.585,301.9117)"><path
             d="M 0,0 H 4.254 C 4.21,1.237 3.494,2.171 2.214,2.171 0.911,2.171 0.065,1.259 0,0 m 7.401,-0.998 v -1.02 h -7.423 c 0.087,-1.389 1.063,-2.193 2.626,-2.193 1.107,0 1.975,0.478 2.453,1.107 L 7.206,-4.732 C 6.12,-6.121 4.558,-6.859 2.496,-6.859 c -3.451,0 -5.752,2.388 -5.752,5.687 0,3.299 2.257,5.752 5.557,5.752 3.451,0 5.1,-2.562 5.1,-5.578"
             style="fill:#313445;fill-opacity:1;fill-rule:nonzero;stroke:none"
             id="path2909"
             inkscape:connector-curvature="0" /></g><g
           id="g2911"
           transform="translate(348.4775,301.6075)"><path
             d="m 0,0 v -6.338 h -3.213 v 6.165 c 0,1.215 -0.608,2.04 -1.671,2.04 -0.955,0 -1.585,-0.607 -2.019,-1.281 v -0.26 -6.664 h -3.212 v 6.165 c 0,1.215 -0.608,2.04 -1.671,2.04 -0.955,0 -1.585,-0.63 -2.019,-1.281 v -6.924 h -3.212 V 4.667 h 2.864 L -14,3.451 c 0.564,0.782 1.606,1.433 3.147,1.433 1.541,0 2.648,-0.694 3.299,-1.888 0.782,1.107 1.91,1.888 3.603,1.888 C -1.389,4.884 0,2.974 0,0"
             style="fill:#313445;fill-opacity:1;fill-rule:nonzero;stroke:none"
             id="path2913"
             inkscape:connector-curvature="0" /></g><g
           id="g2915"
           transform="translate(354.0332,300.7613)"><path
             d="m 0,0 c 0,-1.802 0.955,-2.909 2.365,-2.909 1.086,0 1.715,0.586 2.193,1.367 V 1.562 C 4.08,2.344 3.451,2.93 2.365,2.93 0.955,2.93 0,1.802 0,0 M 4.731,4.276 4.884,5.513 H 7.77 V -5.491 H 4.884 L 4.731,-4.276 C 4.167,-5.057 3.125,-5.709 1.584,-5.709 c -2.908,0 -4.84,2.41 -4.84,5.709 0,3.299 1.932,5.73 4.84,5.73 1.541,0 2.583,-0.651 3.147,-1.454"
             style="fill:#313445;fill-opacity:1;fill-rule:nonzero;stroke:none"
             id="path2917"
             inkscape:connector-curvature="0" /></g><g
           id="g2919"
           transform="translate(368.9663,306.2745)"><path
             d="M 0,0 H 3.147 V -2.714 H 0 v -4.145 c 0,-0.934 0.586,-1.498 1.476,-1.498 0.673,0 1.107,0.195 1.432,0.348 l 0.803,-2.54 c -0.564,-0.369 -1.389,-0.673 -2.517,-0.673 -2.714,0 -4.407,1.541 -4.407,4.32 v 4.188 H -5.187 V 0 h 1.974 V 3.647 H 0 Z"
             style="fill:#313445;fill-opacity:1;fill-rule:nonzero;stroke:none"
             id="path2921"
             inkscape:connector-curvature="0" /></g><path
           d="m 377.887,295.27 h -3.212 v 11.005 h 3.212 z m 0.283,14.477 c 0,-1.085 -0.782,-1.888 -1.867,-1.888 -1.107,0 -1.889,0.803 -1.889,1.888 0,1.086 0.782,1.889 1.889,1.889 1.085,0 1.867,-0.803 1.867,-1.889"
           style="fill:#313445;fill-opacity:1;fill-rule:nonzero;stroke:none"
           id="path2923"
           inkscape:connector-curvature="0" /><g
           id="g2925"
           transform="translate(390.519,303.9518)"><path
             d="m 0,0 -2.236,-1.65 c -0.456,0.826 -1.172,1.411 -2.257,1.411 -1.606,0 -2.497,-1.302 -2.497,-2.952 0,-1.628 0.912,-2.93 2.519,-2.93 1.085,0 1.823,0.586 2.322,1.411 l 2.17,-1.585 C -0.912,-7.901 -2.475,-8.9 -4.537,-8.9 c -3.321,0 -5.686,2.41 -5.686,5.709 0,3.3 2.365,5.73 5.686,5.73 C -2.475,2.539 -0.999,1.585 0,0"
             style="fill:#313445;fill-opacity:1;fill-rule:nonzero;stroke:none"
             id="path2927"
             inkscape:connector-curvature="0" /></g><g
           id="g2929"
           transform="translate(400.7636,305.3409)"><path
             d="m 0,0 -1.172,-2.258 c -0.694,0.478 -1.628,0.935 -2.778,0.935 -0.891,0 -1.39,-0.283 -1.39,-0.87 0,-0.542 0.391,-0.781 1.954,-1.15 2.344,-0.563 3.451,-1.605 3.451,-3.256 0,-2.214 -1.802,-3.69 -4.797,-3.69 -1.671,0 -3.256,0.478 -4.233,1.26 l 1.238,2.301 c 0.759,-0.63 1.779,-1.108 3.017,-1.108 0.977,0 1.563,0.283 1.563,0.934 0,0.586 -0.391,0.868 -1.823,1.216 -2.453,0.607 -3.582,1.497 -3.582,3.212 0,2.214 1.715,3.625 4.645,3.625 C -2.387,1.151 -0.933,0.695 0,0"
             style="fill:#313445;fill-opacity:1;fill-rule:nonzero;stroke:none"
             id="path2931"
             inkscape:connector-curvature="0" /></g><g
           id="g2933"
           transform="translate(155.3711,275.4317)"><path
             d="m 0,0 c 0,-1.802 0.955,-2.909 2.366,-2.909 1.085,0 1.714,0.586 2.192,1.367 V 1.562 C 4.08,2.344 3.451,2.93 2.366,2.93 0.955,2.93 0,1.802 0,0 M 4.732,4.276 4.884,5.513 H 7.771 V -5.492 H 4.884 L 4.732,-4.276 C 4.167,-5.057 3.125,-5.709 1.584,-5.709 c -2.908,0 -4.84,2.41 -4.84,5.709 0,3.299 1.932,5.73 4.84,5.73 1.541,0 2.583,-0.651 3.148,-1.454"
             style="fill:#313445;fill-opacity:1;fill-rule:nonzero;stroke:none"
             id="path2935"
             inkscape:connector-curvature="0" /></g><g
           id="g2937"
           transform="translate(176.4682,276.2779)"><path
             d="m 0,0 v -6.338 h -3.212 v 6.165 c 0,1.215 -0.673,2.04 -1.78,2.04 -0.999,0 -1.65,-0.63 -2.062,-1.281 v -6.924 h -3.213 V 4.667 h 2.865 L -7.25,3.451 c 0.565,0.804 1.628,1.433 3.126,1.433 C -1.432,4.884 0,2.974 0,0"
             style="fill:#313445;fill-opacity:1;fill-rule:nonzero;stroke:none"
             id="path2939"
             inkscape:connector-curvature="0" /></g><g
           id="g2941"
           transform="translate(182.0034,275.4317)"><path
             d="m 0,0 c 0,-1.802 0.998,-2.909 2.452,-2.909 1.107,0 1.78,0.586 2.258,1.367 V 1.541 C 4.232,2.344 3.559,2.93 2.452,2.93 0.998,2.93 0,1.802 0,0 M 7.901,-5.492 H 5.035 L 4.862,-4.276 C 4.297,-5.057 3.234,-5.709 1.649,-5.709 c -2.909,0 -4.905,2.41 -4.905,5.709 0,3.299 1.996,5.73 4.905,5.73 1.563,0 2.518,-0.608 3.061,-1.216 v 6.49 h 3.191 z"
             style="fill:#313445;fill-opacity:1;fill-rule:nonzero;stroke:none"
             id="path2943"
             inkscape:connector-curvature="0" /></g><path
           d="m 201.949,269.94 h -3.321 v 15.954 h 3.321 z"
           style="fill:#313445;fill-opacity:1;fill-rule:nonzero;stroke:none"
           id="path2945"
           inkscape:connector-curvature="0" /><g
           id="g2947"
           transform="translate(215.5801,276.2779)"><path
             d="m 0,0 v -6.338 h -3.213 v 6.165 c 0,1.215 -0.673,2.04 -1.779,2.04 -0.999,0 -1.65,-0.63 -2.062,-1.281 v -6.924 h -3.213 V 4.667 h 2.865 L -7.25,3.451 c 0.564,0.804 1.628,1.433 3.126,1.433 C -1.433,4.884 0,2.974 0,0"
             style="fill:#313445;fill-opacity:1;fill-rule:nonzero;stroke:none"
             id="path2949"
             inkscape:connector-curvature="0" /></g><g
           id="g2951"
           transform="translate(226.4326,285.7418)"><path
             d="m 0,0 -1.151,-2.562 c -0.26,0.261 -0.694,0.456 -1.237,0.456 -0.868,0 -1.346,-0.586 -1.346,-1.563 v -1.128 h 2.453 V -7.51 h -2.453 v -8.292 h -3.212 v 8.292 h -1.91 v 2.713 h 1.91 v 0.955 c 0,2.648 1.671,4.536 4.385,4.536 C -1.476,0.694 -0.608,0.434 0,0"
             style="fill:#313445;fill-opacity:1;fill-rule:nonzero;stroke:none"
             id="path2953"
             inkscape:connector-curvature="0" /></g><g
           id="g2955"
           transform="translate(229.9702,275.4098)"><path
             d="m 0,0 c 0,-1.693 1.041,-2.887 2.539,-2.887 1.519,0 2.583,1.194 2.583,2.887 0,1.736 -1.064,2.952 -2.583,2.952 C 1.041,2.952 0,1.736 0,0 m 8.356,0 c 0,-3.3 -2.474,-5.687 -5.817,-5.687 -3.342,0 -5.795,2.387 -5.795,5.687 0,3.299 2.453,5.752 5.795,5.752 3.343,0 5.817,-2.453 5.817,-5.752"
             style="fill:#313445;fill-opacity:1;fill-rule:nonzero;stroke:none"
             id="path2957"
             inkscape:connector-curvature="0" /></g><g
           id="g2959"
           transform="translate(246.9429,277.9713)"><path
             d="m 0,0 h -0.261 c -1.28,0 -2.105,-0.63 -2.734,-1.455 V -8.031 H -6.208 V 2.974 h 2.865 L -3.169,1.519 C -2.627,2.43 -1.519,3.19 0,3.19 Z"
             style="fill:#313445;fill-opacity:1;fill-rule:nonzero;stroke:none"
             id="path2961"
             inkscape:connector-curvature="0" /></g><g
           id="g2963"
           transform="translate(266.0219,276.2779)"><path
             d="m 0,0 v -6.338 h -3.212 v 6.165 c 0,1.215 -0.609,2.04 -1.672,2.04 -0.955,0 -1.585,-0.607 -2.018,-1.281 v -0.26 -6.664 h -3.213 v 6.165 c 0,1.215 -0.608,2.04 -1.671,2.04 -0.955,0 -1.585,-0.63 -2.019,-1.281 v -6.924 h -3.212 V 4.667 h 2.864 L -14,3.451 c 0.564,0.782 1.606,1.433 3.147,1.433 1.541,0 2.649,-0.694 3.3,-1.888 0.781,1.107 1.909,1.888 3.602,1.888 C -1.389,4.884 0,2.974 0,0"
             style="fill:#313445;fill-opacity:1;fill-rule:nonzero;stroke:none"
             id="path2965"
             inkscape:connector-curvature="0" /></g><g
           id="g2967"
           transform="translate(271.5776,275.4317)"><path
             d="m 0,0 c 0,-1.802 0.955,-2.909 2.366,-2.909 1.085,0 1.715,0.586 2.192,1.367 V 1.562 C 4.081,2.344 3.451,2.93 2.366,2.93 0.955,2.93 0,1.802 0,0 M 4.732,4.276 4.884,5.513 H 7.771 V -5.492 H 4.884 L 4.732,-4.276 C 4.168,-5.057 3.125,-5.709 1.585,-5.709 c -2.909,0 -4.841,2.41 -4.841,5.709 0,3.299 1.932,5.73 4.841,5.73 1.54,0 2.583,-0.651 3.147,-1.454"
             style="fill:#313445;fill-opacity:1;fill-rule:nonzero;stroke:none"
             id="path2969"
             inkscape:connector-curvature="0" /></g><g
           id="g2971"
           transform="translate(286.5107,280.9449)"><path
             d="M 0,0 H 3.147 V -2.714 H 0 v -4.145 c 0,-0.933 0.586,-1.498 1.476,-1.498 0.673,0 1.107,0.196 1.432,0.348 l 0.803,-2.54 c -0.564,-0.369 -1.389,-0.673 -2.517,-0.673 -2.714,0 -4.407,1.542 -4.407,4.32 v 4.188 H -5.187 V 0 h 1.974 V 3.647 H 0 Z"
             style="fill:#313445;fill-opacity:1;fill-rule:nonzero;stroke:none"
             id="path2973"
             inkscape:connector-curvature="0" /></g><path
           d="m 295.432,269.94 h -3.212 v 11.005 h 3.212 z m 0.282,14.478 c 0,-1.085 -0.782,-1.889 -1.867,-1.889 -1.107,0 -1.888,0.804 -1.888,1.889 0,1.085 0.781,1.888 1.888,1.888 1.085,0 1.867,-0.803 1.867,-1.888"
           style="fill:#313445;fill-opacity:1;fill-rule:nonzero;stroke:none"
           id="path2975"
           inkscape:connector-curvature="0" /><g
           id="g2977"
           transform="translate(301.0962,275.4098)"><path
             d="m 0,0 c 0,-1.693 1.041,-2.887 2.539,-2.887 1.519,0 2.583,1.194 2.583,2.887 0,1.736 -1.064,2.952 -2.583,2.952 C 1.041,2.952 0,1.736 0,0 m 8.356,0 c 0,-3.3 -2.474,-5.687 -5.817,-5.687 -3.342,0 -5.795,2.387 -5.795,5.687 0,3.299 2.453,5.752 5.795,5.752 3.343,0 5.817,-2.453 5.817,-5.752"
             style="fill:#313445;fill-opacity:1;fill-rule:nonzero;stroke:none"
             id="path2979"
             inkscape:connector-curvature="0" /></g><g
           id="g2981"
           transform="translate(322.128,276.2779)"><path
             d="m 0,0 v -6.338 h -3.213 v 6.165 c 0,1.215 -0.673,2.04 -1.779,2.04 -0.999,0 -1.65,-0.63 -2.062,-1.281 v -6.924 h -3.213 V 4.667 h 2.865 L -7.25,3.451 c 0.564,0.804 1.628,1.433 3.126,1.433 C -1.433,4.884 0,2.974 0,0"
             style="fill:#313445;fill-opacity:1;fill-rule:nonzero;stroke:none"
             id="path2983"
             inkscape:connector-curvature="0" /></g><g
           id="g2985"
           transform="translate(341.5971,274.8018)"><path
             d="M 0,0 C 0,-2.236 -1.216,-3.95 -3.321,-4.71 V 4.124 C -0.825,3.256 0,1.953 0,0 m -5.644,8.379 v 2.995 c 2.171,-0.044 4.168,-0.738 5.492,-1.715 l -1.607,-2.8 c -0.976,0.76 -2.322,1.455 -3.885,1.52 M -8.357,2.236 c -2.539,0.911 -3.342,2.323 -3.342,4.211 0,2.105 1.302,3.776 3.342,4.514 z m 2.323,-4.385 v -2.995 c -2.432,0 -4.623,0.76 -6.186,2.127 l 1.801,2.735 c 1.042,-1.107 2.779,-1.823 4.385,-1.867"
             style="fill:#313445;fill-opacity:1;fill-rule:nonzero;stroke:none"
             id="path2987"
             inkscape:connector-curvature="0" /></g><g
           id="g2989"
           transform="translate(353.8818,278.6221)"><path
             d="m 0,0 -2.236,-1.649 c -0.456,0.825 -1.172,1.41 -2.257,1.41 -1.606,0 -2.497,-1.302 -2.497,-2.951 0,-1.628 0.912,-2.931 2.519,-2.931 1.085,0 1.823,0.587 2.322,1.411 l 2.17,-1.584 c -0.933,-1.607 -2.496,-2.605 -4.558,-2.605 -3.321,0 -5.686,2.409 -5.686,5.709 0,3.299 2.365,5.729 5.686,5.729 C -2.475,2.539 -0.999,1.585 0,0"
             style="fill:#313445;fill-opacity:1;fill-rule:nonzero;stroke:none"
             id="path2991"
             inkscape:connector-curvature="0" /></g><path
           d="m 359.134,269.94 h -3.212 v 11.005 h 3.212 z m 0.283,14.478 c 0,-1.085 -0.782,-1.889 -1.867,-1.889 -1.107,0 -1.889,0.804 -1.889,1.889 0,1.085 0.782,1.888 1.889,1.888 1.085,0 1.867,-0.803 1.867,-1.888"
           style="fill:#313445;fill-opacity:1;fill-rule:nonzero;stroke:none"
           id="path2993"
           inkscape:connector-curvature="0" /><g
           id="g2995"
           transform="translate(364.7993,276.5821)"><path
             d="M 0,0 H 4.254 C 4.21,1.237 3.494,2.171 2.214,2.171 0.911,2.171 0.065,1.259 0,0 m 7.401,-0.998 v -1.02 h -7.423 c 0.087,-1.389 1.063,-2.193 2.626,-2.193 1.107,0 1.975,0.478 2.453,1.107 L 7.206,-4.732 C 6.12,-6.121 4.558,-6.859 2.496,-6.859 c -3.451,0 -5.752,2.388 -5.752,5.687 0,3.299 2.257,5.752 5.557,5.752 3.451,0 5.1,-2.562 5.1,-5.578"
             style="fill:#313445;fill-opacity:1;fill-rule:nonzero;stroke:none"
             id="path2997"
             inkscape:connector-curvature="0" /></g><g
           id="g2999"
           transform="translate(384.9409,276.2779)"><path
             d="m 0,0 v -6.338 h -3.213 v 6.165 c 0,1.215 -0.673,2.04 -1.779,2.04 -0.999,0 -1.65,-0.63 -2.062,-1.281 v -6.924 h -3.213 V 4.667 h 2.865 L -7.25,3.451 c 0.564,0.804 1.628,1.433 3.126,1.433 C -1.433,4.884 0,2.974 0,0"
             style="fill:#313445;fill-opacity:1;fill-rule:nonzero;stroke:none"
             id="path3001"
             inkscape:connector-curvature="0" /></g><g
           id="g3003"
           transform="translate(397.4648,278.6221)"><path
             d="m 0,0 -2.236,-1.649 c -0.456,0.825 -1.172,1.41 -2.257,1.41 -1.606,0 -2.497,-1.302 -2.497,-2.951 0,-1.628 0.912,-2.931 2.519,-2.931 1.085,0 1.823,0.587 2.322,1.411 l 2.17,-1.584 c -0.933,-1.607 -2.496,-2.605 -4.558,-2.605 -3.321,0 -5.686,2.409 -5.686,5.709 0,3.299 2.365,5.729 5.686,5.729 C -2.475,2.539 -0.999,1.585 0,0"
             style="fill:#313445;fill-opacity:1;fill-rule:nonzero;stroke:none"
             id="path3005"
             inkscape:connector-curvature="0" /></g><g
           id="g3007"
           transform="translate(402.1094,276.5821)"><path
             d="M 0,0 H 4.254 C 4.21,1.237 3.494,2.171 2.214,2.171 0.911,2.171 0.065,1.259 0,0 m 7.401,-0.998 v -1.02 h -7.423 c 0.087,-1.389 1.063,-2.193 2.626,-2.193 1.107,0 1.975,0.478 2.453,1.107 L 7.206,-4.732 C 6.12,-6.121 4.558,-6.859 2.496,-6.859 c -3.451,0 -5.752,2.388 -5.752,5.687 0,3.299 2.257,5.752 5.557,5.752 3.451,0 5.1,-2.562 5.1,-5.578"
             style="fill:#313445;fill-opacity:1;fill-rule:nonzero;stroke:none"
             id="path3009"
             inkscape:connector-curvature="0" /></g><g
           id="g3011"
           transform="translate(159.9942,255.2022)"><path
             d="m 0,0 c 0.022,-0.144 0.022,-0.295 0,-0.416 l -0.544,-0.076 -1.377,-4.574 h -0.763 l -1.066,4.12 -0.031,0.303 h -0.015 l -0.03,-0.303 -1.066,-4.12 h -0.764 l -1.376,4.574 -0.544,0.076 c -0.023,0.121 -0.023,0.272 0,0.416 h 1.777 c 0.022,-0.144 0.022,-0.295 0,-0.416 l -0.552,-0.076 1.043,-3.705 0.03,-0.302 h 0.016 l 0.03,0.302 1.051,4.121 h 0.809 l 1.028,-4.121 0.03,-0.302 h 0.015 l 0.031,0.302 1.043,3.713 -0.537,0.068 c -0.022,0.121 -0.022,0.272 0,0.416 z"
             style="fill:#313445;fill-opacity:1;fill-rule:nonzero;stroke:none"
             id="path3013"
             inkscape:connector-curvature="0" /></g><g
           id="g3015"
           transform="translate(163.188,254.3326)"><path
             d="M 0,0 -0.03,0.302 H -0.045 L -0.076,0 -0.839,-1.966 h 1.587 z m 2.654,-3.781 c 0.022,-0.121 0.022,-0.272 0,-0.416 H 0.877 c -0.023,0.144 -0.023,0.295 0,0.416 l 0.537,0.068 -0.454,1.18 h -2.019 l -0.461,-1.172 0.552,-0.076 c 0.023,-0.121 0.023,-0.272 0,-0.416 h -1.777 c -0.022,0.144 -0.022,0.295 0,0.416 l 0.552,0.076 1.671,4.106 -0.454,0.052 c -0.022,0.121 -0.022,0.272 0,0.416 H 0.31 l 1.815,-4.582 z"
             style="fill:#313445;fill-opacity:1;fill-rule:nonzero;stroke:none"
             id="path3017"
             inkscape:connector-curvature="0" /></g><g
           id="g3019"
           transform="translate(168.1731,252.9264)"><path
             d="m 0,0 c 0.257,-0.023 0.521,-0.031 0.809,-0.031 0.552,0 0.968,0.265 0.968,0.87 0,0.68 -0.416,0.945 -0.968,0.945 C 0.521,1.784 0.257,1.777 0,1.754 Z m 3.168,-2.374 c 0.022,-0.121 0.022,-0.273 0,-0.416 H 2.17 L 0.65,-0.598 C 0.423,-0.59 0.204,-0.583 0,-0.568 v -1.731 l 0.567,-0.075 c 0.023,-0.121 0.023,-0.273 0,-0.416 H -1.21 c -0.023,0.143 -0.023,0.295 0,0.416 l 0.567,0.075 V 1.784 L -1.21,1.86 c -0.023,0.121 -0.023,0.272 0,0.416 h 0.567 c 0.461,0 0.915,0.075 1.452,0.075 0.922,0 1.648,-0.491 1.648,-1.512 0,-0.748 -0.454,-1.21 -1.104,-1.376 l 1.248,-1.762 z"
             style="fill:#313445;fill-opacity:1;fill-rule:nonzero;stroke:none"
             id="path3021"
             inkscape:connector-curvature="0" /></g><g
           id="g3023"
           transform="translate(175.7588,251.4669)"><path
             d="m 0,0 c 0,-0.885 -0.597,-1.407 -1.686,-1.407 -0.545,0 -0.983,0.152 -1.339,0.333 v 1.149 c 0.129,0.023 0.363,0.023 0.492,0 l 0.075,-0.771 c 0.242,-0.09 0.507,-0.144 0.772,-0.144 0.567,0 1.035,0.227 1.035,0.84 0,1.217 -2.389,0.786 -2.389,2.488 0,0.786 0.529,1.322 1.52,1.322 0.544,0 0.907,-0.151 1.262,-0.332 v -1.15 c -0.128,-0.022 -0.362,-0.022 -0.491,0 L -0.824,3.115 C -1.036,3.191 -1.271,3.243 -1.52,3.243 -2.117,3.243 -2.397,3.017 -2.397,2.488 -2.397,1.331 0,1.686 0,0"
             style="fill:#313445;fill-opacity:1;fill-rule:nonzero;stroke:none"
             id="path3025"
             inkscape:connector-curvature="0" /></g><g
           id="g3027"
           transform="translate(179.8432,254.3326)"><path
             d="M 0,0 -0.031,0.302 H -0.046 L -0.076,0 -0.84,-1.966 h 1.588 z m 2.654,-3.781 c 0.023,-0.121 0.023,-0.272 0,-0.416 H 0.877 c -0.023,0.144 -0.023,0.295 0,0.416 l 0.537,0.068 -0.454,1.18 h -2.019 l -0.461,-1.172 0.552,-0.076 c 0.023,-0.121 0.023,-0.272 0,-0.416 h -1.777 c -0.022,0.144 -0.022,0.295 0,0.416 l 0.552,0.076 1.671,4.106 -0.453,0.052 c -0.023,0.121 -0.023,0.272 0,0.416 H 0.31 l 1.814,-4.582 z"
             style="fill:#313445;fill-opacity:1;fill-rule:nonzero;stroke:none"
             id="path3029"
             inkscape:connector-curvature="0" /></g><g
           id="g3031"
           transform="translate(190.3628,255.2022)"><path
             d="m 0,0 c 0.023,-0.144 0.023,-0.295 0,-0.416 l -0.545,-0.076 -1.376,-4.574 h -0.763 l -1.066,4.12 -0.031,0.303 h -0.015 l -0.03,-0.303 -1.066,-4.12 h -0.764 l -1.376,4.574 -0.544,0.076 c -0.023,0.121 -0.023,0.272 0,0.416 h 1.777 c 0.022,-0.144 0.022,-0.295 0,-0.416 l -0.552,-0.076 1.043,-3.705 0.03,-0.302 h 0.016 l 0.03,0.302 1.051,4.121 h 0.809 l 1.028,-4.121 0.03,-0.302 h 0.015 l 0.031,0.302 1.043,3.713 -0.537,0.068 c -0.022,0.121 -0.022,0.272 0,0.416 z"
             style="fill:#313445;fill-opacity:1;fill-rule:nonzero;stroke:none"
             id="path3033"
             inkscape:connector-curvature="0" /></g><g
           id="g3035"
           transform="translate(198.9785,255.2022)"><path
             d="m 0,0 c 0.023,-0.144 0.023,-0.295 0,-0.416 l -0.567,-0.076 v -2.797 c 0,-1.248 -0.749,-1.853 -1.928,-1.853 -1.18,0 -1.928,0.605 -1.928,1.853 v 2.797 l -0.567,0.076 c -0.023,0.121 -0.023,0.272 0,0.416 h 1.776 c 0.023,-0.144 0.023,-0.295 0,-0.416 l -0.567,-0.076 v -2.797 c 0,-0.832 0.409,-1.286 1.286,-1.286 0.877,0 1.285,0.454 1.285,1.286 v 2.797 l -0.567,0.076 C -1.8,-0.295 -1.8,-0.144 -1.777,0 Z"
             style="fill:#313445;fill-opacity:1;fill-rule:nonzero;stroke:none"
             id="path3037"
             inkscape:connector-curvature="0" /></g><g
           id="g3039"
           transform="translate(205.7783,255.2022)"><path
             d="M 0,0 C 0.023,-0.144 0.023,-0.295 0,-0.416 L -0.567,-0.492 V -5.066 H -1.49 l -2.495,4.166 -0.083,0.302 h -0.015 v -3.977 l 0.567,-0.075 c 0.023,-0.121 0.023,-0.273 0,-0.416 h -1.777 c -0.022,0.143 -0.022,0.295 0,0.416 l 0.567,0.075 v 4.083 l -0.567,0.076 c -0.022,0.121 -0.022,0.272 0,0.416 h 1.49 l 2.487,-4.159 0.091,-0.378 h 0.015 v 4.045 l -0.567,0.076 C -1.8,-0.295 -1.8,-0.144 -1.777,0 Z"
             style="fill:#313445;fill-opacity:1;fill-rule:nonzero;stroke:none"
             id="path3041"
             inkscape:connector-curvature="0" /></g><g
           id="g3043"
           transform="translate(208.9111,250.5523)"><path
             d="M 0,0 C 0.023,-0.121 0.023,-0.273 0,-0.416 H -1.777 C -1.8,-0.273 -1.8,-0.121 -1.777,0 L -1.21,0.075 V 4.158 L -1.777,4.234 C -1.8,4.355 -1.8,4.506 -1.777,4.65 H 0 C 0.023,4.506 0.023,4.355 0,4.234 L -0.567,4.158 V 0.075 Z"
             style="fill:#313445;fill-opacity:1;fill-rule:nonzero;stroke:none"
             id="path3045"
             inkscape:connector-curvature="0" /></g><g
           id="g3047"
           transform="translate(215.3994,255.2022)"><path
             d="m 0,0 c 0.022,-0.144 0.022,-0.295 0,-0.416 l -0.537,-0.068 -1.792,-4.582 h -0.642 l -1.74,4.582 -0.536,0.068 c -0.023,0.121 -0.023,0.272 0,0.416 h 1.777 c 0.022,-0.144 0.022,-0.295 0,-0.416 l -0.538,-0.068 1.346,-3.713 0.03,-0.302 h 0.016 l 0.03,0.302 1.376,3.705 -0.552,0.076 c -0.022,0.121 -0.022,0.272 0,0.416 z"
             style="fill:#313445;fill-opacity:1;fill-rule:nonzero;stroke:none"
             id="path3049"
             inkscape:connector-curvature="0" /></g><g
           id="g3051"
           transform="translate(219.7422,251.3609)"><path
             d="m 0,0 c 0.128,0.023 0.363,0.023 0.491,0 v -1.225 h -3.629 c -0.023,0.144 -0.023,0.295 0,0.416 l 0.567,0.075 v 4.083 l -0.567,0.077 c -0.023,0.12 -0.023,0.271 0,0.415 H 0.34 V 2.616 c -0.128,-0.022 -0.363,-0.022 -0.492,0 l -0.06,0.658 H -1.928 V 1.603 l 1.776,0.045 V 1.081 l -1.776,0.046 v -1.785 h 1.867 z"
             style="fill:#313445;fill-opacity:1;fill-rule:nonzero;stroke:none"
             id="path3053"
             inkscape:connector-curvature="0" /></g><g
           id="g3055"
           transform="translate(222.8213,252.9264)"><path
             d="m 0,0 c 0.257,-0.023 0.521,-0.031 0.809,-0.031 0.552,0 0.968,0.265 0.968,0.87 0,0.68 -0.416,0.945 -0.968,0.945 C 0.521,1.784 0.257,1.777 0,1.754 Z m 3.168,-2.374 c 0.022,-0.121 0.022,-0.273 0,-0.416 H 2.17 L 0.65,-0.598 C 0.423,-0.59 0.204,-0.583 0,-0.568 v -1.731 l 0.567,-0.075 c 0.023,-0.121 0.023,-0.273 0,-0.416 H -1.21 c -0.023,0.143 -0.023,0.295 0,0.416 l 0.567,0.075 V 1.784 L -1.21,1.86 c -0.023,0.121 -0.023,0.272 0,0.416 h 0.567 c 0.461,0 0.915,0.075 1.452,0.075 0.922,0 1.648,-0.491 1.648,-1.512 0,-0.748 -0.454,-1.21 -1.104,-1.376 l 1.248,-1.762 z"
             style="fill:#313445;fill-opacity:1;fill-rule:nonzero;stroke:none"
             id="path3057"
             inkscape:connector-curvature="0" /></g><g
           id="g3059"
           transform="translate(230.4068,251.4669)"><path
             d="m 0,0 c 0,-0.885 -0.597,-1.407 -1.686,-1.407 -0.545,0 -0.983,0.152 -1.339,0.333 v 1.149 c 0.129,0.023 0.363,0.023 0.492,0 l 0.075,-0.771 c 0.242,-0.09 0.507,-0.144 0.772,-0.144 0.567,0 1.035,0.227 1.035,0.84 0,1.217 -2.389,0.786 -2.389,2.488 0,0.786 0.529,1.322 1.52,1.322 0.544,0 0.907,-0.151 1.262,-0.332 v -1.15 c -0.128,-0.022 -0.362,-0.022 -0.491,0 L -0.824,3.115 C -1.036,3.191 -1.271,3.243 -1.52,3.243 -2.117,3.243 -2.397,3.017 -2.397,2.488 -2.397,1.331 0,1.686 0,0"
             style="fill:#313445;fill-opacity:1;fill-rule:nonzero;stroke:none"
             id="path3061"
             inkscape:connector-curvature="0" /></g><g
           id="g3063"
           transform="translate(233.7881,250.5523)"><path
             d="M 0,0 C 0.023,-0.121 0.023,-0.273 0,-0.416 H -1.777 C -1.8,-0.273 -1.8,-0.121 -1.777,0 L -1.21,0.075 V 4.158 L -1.777,4.234 C -1.8,4.355 -1.8,4.506 -1.777,4.65 H 0 C 0.023,4.506 0.023,4.355 0,4.234 L -0.567,4.158 V 0.075 Z"
             style="fill:#313445;fill-opacity:1;fill-rule:nonzero;stroke:none"
             id="path3065"
             inkscape:connector-curvature="0" /></g><g
           id="g3067"
           transform="translate(239.1353,253.9771)"><path
             d="m 0,0 c -0.129,-0.023 -0.363,-0.023 -0.492,0 l -0.06,0.657 H -1.701 V -3.35 h 0.007 l 0.567,-0.075 c 0.023,-0.121 0.023,-0.273 0,-0.416 h -1.777 c -0.023,0.143 -0.023,0.295 0,0.416 l 0.56,0.075 V 0.657 H -3.493 L -3.554,0 C -3.682,-0.023 -3.917,-0.023 -4.045,0 V 1.225 H 0 Z"
             style="fill:#313445;fill-opacity:1;fill-rule:nonzero;stroke:none"
             id="path3069"
             inkscape:connector-curvature="0" /></g><g
           id="g3071"
           transform="translate(243.0762,250.6275)"><path
             d="m 0,0 0.567,-0.075 c 0.023,-0.122 0.023,-0.273 0,-0.416 H -1.21 c -0.023,0.143 -0.023,0.294 0,0.416 L -0.643,0 v 1.316 l -1.482,2.767 -0.597,0.075 c -0.023,0.122 -0.023,0.272 0,0.416 h 1.777 c 0.022,-0.144 0.022,-0.294 0,-0.416 l -0.477,-0.067 1.074,-2.125 0.03,-0.378 h 0.016 l 0.03,0.378 1.074,2.117 -0.507,0.075 C 0.272,4.28 0.272,4.43 0.295,4.574 H 2.072 C 2.094,4.43 2.094,4.28 2.072,4.158 L 1.474,4.091 0,1.316 Z"
             style="fill:#313445;fill-opacity:1;fill-rule:nonzero;stroke:none"
             id="path3073"
             inkscape:connector-curvature="0" /></g><g
           id="g3075"
           transform="translate(253.2182,252.669)"><path
             d="m 0,0 c 0,1.436 -0.847,2.042 -1.777,2.042 -0.93,0 -1.776,-0.606 -1.776,-2.042 0,-1.436 0.846,-2.042 1.776,-2.042 C -0.847,-2.042 0,-1.436 0,0 m 0.68,0 c 0,-1.958 -1.262,-2.609 -2.457,-2.609 -1.194,0 -2.457,0.651 -2.457,2.609 0,1.958 1.263,2.608 2.457,2.608 1.195,0 2.457,-0.65 2.457,-2.608"
             style="fill:#313445;fill-opacity:1;fill-rule:nonzero;stroke:none"
             id="path3077"
             inkscape:connector-curvature="0" /></g><g
           id="g3079"
           transform="translate(258.9448,253.9771)"><path
             d="m 0,0 c -0.129,-0.023 -0.363,-0.023 -0.491,0 l -0.061,0.657 h -1.717 v -1.746 l 1.778,0.045 v -0.567 l -1.778,0.046 V -3.35 l 0.794,-0.075 c 0.023,-0.121 0.023,-0.273 0,-0.416 h -2.003 c -0.023,0.143 -0.023,0.295 0,0.416 l 0.567,0.075 v 4.083 l -0.567,0.076 c -0.023,0.121 -0.023,0.272 0,0.416 H 0 Z"
             style="fill:#313445;fill-opacity:1;fill-rule:nonzero;stroke:none"
             id="path3081"
             inkscape:connector-curvature="0" /></g><g
           id="g3083"
           transform="translate(266.5459,253.9771)"><path
             d="m 0,0 c -0.129,-0.023 -0.363,-0.023 -0.492,0 l -0.06,0.657 H -1.701 V -3.35 h 0.007 l 0.567,-0.075 c 0.023,-0.121 0.023,-0.273 0,-0.416 h -1.777 c -0.023,0.143 -0.023,0.295 0,0.416 l 0.56,0.075 V 0.657 H -3.493 L -3.554,0 C -3.682,-0.023 -3.917,-0.023 -4.045,0 V 1.225 H 0 Z"
             style="fill:#313445;fill-opacity:1;fill-rule:nonzero;stroke:none"
             id="path3085"
             inkscape:connector-curvature="0" /></g><g
           id="g3087"
           transform="translate(270.9409,251.3609)"><path
             d="m 0,0 c 0.128,0.023 0.363,0.023 0.491,0 v -1.225 h -3.629 c -0.023,0.144 -0.023,0.295 0,0.416 l 0.567,0.075 v 4.083 l -0.567,0.077 c -0.023,0.12 -0.023,0.271 0,0.415 H 0.34 V 2.616 c -0.129,-0.022 -0.363,-0.022 -0.492,0 l -0.06,0.658 H -1.928 V 1.603 l 1.776,0.045 V 1.081 l -1.776,0.046 v -1.785 h 1.867 z"
             style="fill:#313445;fill-opacity:1;fill-rule:nonzero;stroke:none"
             id="path3089"
             inkscape:connector-curvature="0" /></g><g
           id="g3091"
           transform="translate(276.9687,254.9449)"><path
             d="m 0,0 v -1.15 c -0.129,-0.022 -0.363,-0.022 -0.492,0 l -0.075,0.764 c -0.279,0.091 -0.605,0.151 -0.923,0.151 -1.005,0 -1.776,-0.604 -1.776,-2.041 0,-1.437 0.847,-2.042 1.776,-2.042 0.575,0 1.149,0.198 1.49,0.416 v -0.65 c -0.356,-0.181 -0.87,-0.333 -1.49,-0.333 -1.194,0 -2.457,0.651 -2.457,2.609 0,1.958 1.263,2.609 2.457,2.609 C -0.87,0.333 -0.356,0.182 0,0"
             style="fill:#313445;fill-opacity:1;fill-rule:nonzero;stroke:none"
             id="path3093"
             inkscape:connector-curvature="0" /></g><g
           id="g3095"
           transform="translate(283.8286,250.5523)"><path
             d="M 0,0 C 0.022,-0.121 0.022,-0.273 0,-0.416 H -1.777 C -1.8,-0.273 -1.8,-0.121 -1.777,0 L -1.21,0.075 V 1.89 H -4.083 V 0.075 L -3.516,0 c 0.023,-0.121 0.023,-0.273 0,-0.416 h -1.777 c -0.022,0.143 -0.022,0.295 0,0.416 l 0.567,0.075 v 4.083 l -0.567,0.076 c -0.022,0.121 -0.022,0.272 0,0.416 h 1.777 c 0.023,-0.144 0.023,-0.295 0,-0.416 L -4.083,4.158 V 2.457 H -1.21 V 4.158 L -1.777,4.234 C -1.8,4.355 -1.8,4.506 -1.777,4.65 H 0 C 0.022,4.506 0.022,4.355 0,4.234 L -0.567,4.158 V 0.075 Z"
             style="fill:#313445;fill-opacity:1;fill-rule:nonzero;stroke:none"
             id="path3097"
             inkscape:connector-curvature="0" /></g><g
           id="g3099"
           transform="translate(290.6739,255.2022)"><path
             d="M 0,0 C 0.023,-0.144 0.023,-0.295 0,-0.416 L -0.567,-0.492 V -5.066 H -1.49 l -2.495,4.166 -0.083,0.302 h -0.015 v -3.977 l 0.567,-0.075 c 0.023,-0.121 0.023,-0.273 0,-0.416 h -1.777 c -0.022,0.143 -0.022,0.295 0,0.416 l 0.567,0.075 v 4.083 l -0.567,0.076 c -0.022,0.121 -0.022,0.272 0,0.416 h 1.49 l 2.487,-4.159 0.091,-0.378 h 0.015 v 4.045 l -0.567,0.076 C -1.8,-0.295 -1.8,-0.144 -1.777,0 Z"
             style="fill:#313445;fill-opacity:1;fill-rule:nonzero;stroke:none"
             id="path3101"
             inkscape:connector-curvature="0" /></g><g
           id="g3103"
           transform="translate(296.3999,252.669)"><path
             d="m 0,0 c 0,1.436 -0.847,2.042 -1.777,2.042 -0.93,0 -1.776,-0.606 -1.776,-2.042 0,-1.436 0.846,-2.042 1.776,-2.042 C -0.847,-2.042 0,-1.436 0,0 m 0.68,0 c 0,-1.958 -1.262,-2.609 -2.457,-2.609 -1.194,0 -2.457,0.651 -2.457,2.609 0,1.958 1.263,2.608 2.457,2.608 1.195,0 2.457,-0.65 2.457,-2.608"
             style="fill:#313445;fill-opacity:1;fill-rule:nonzero;stroke:none"
             id="path3105"
             inkscape:connector-curvature="0" /></g><g
           id="g3107"
           transform="translate(301.71,251.3609)"><path
             d="m 0,0 c 0.128,0.023 0.363,0.023 0.491,0 v -1.225 h -3.553 c -0.023,0.144 -0.023,0.295 0,0.416 l 0.567,0.075 v 4.083 l -0.567,0.077 c -0.023,0.12 -0.023,0.271 0,0.415 h 1.777 c 0.022,-0.144 0.022,-0.295 0,-0.415 L -1.853,3.349 v -4.007 h 1.792 z"
             style="fill:#313445;fill-opacity:1;fill-rule:nonzero;stroke:none"
             id="path3109"
             inkscape:connector-curvature="0" /></g><g
           id="g3111"
           transform="translate(307.753,252.669)"><path
             d="m 0,0 c 0,1.436 -0.847,2.042 -1.777,2.042 -0.93,0 -1.776,-0.606 -1.776,-2.042 0,-1.436 0.846,-2.042 1.776,-2.042 C -0.847,-2.042 0,-1.436 0,0 m 0.68,0 c 0,-1.958 -1.262,-2.609 -2.457,-2.609 -1.194,0 -2.457,0.651 -2.457,2.609 0,1.958 1.263,2.608 2.457,2.608 1.195,0 2.457,-0.65 2.457,-2.608"
             style="fill:#313445;fill-opacity:1;fill-rule:nonzero;stroke:none"
             id="path3113"
             inkscape:connector-curvature="0" /></g><g
           id="g3115"
           transform="translate(314.3487,250.3932)"><path
             d="m 0,0 c -0.355,-0.181 -0.945,-0.333 -1.717,-0.333 -1.194,0 -2.457,0.651 -2.457,2.609 0,1.958 1.263,2.608 2.457,2.608 0.696,0 1.21,-0.151 1.566,-0.332 V 3.402 C -0.28,3.38 -0.514,3.38 -0.643,3.402 l -0.076,0.756 c -0.287,0.099 -0.634,0.159 -0.998,0.159 -1.005,0 -1.776,-0.605 -1.776,-2.041 0,-1.437 0.847,-2.042 1.776,-2.042 0.432,0 0.787,0.038 1.074,0.099 v 1.565 h -0.899 l 0.037,0.567 H 0 Z"
             style="fill:#313445;fill-opacity:1;fill-rule:nonzero;stroke:none"
             id="path3117"
             inkscape:connector-curvature="0" /></g><g
           id="g3119"
           transform="translate(318.6001,250.6275)"><path
             d="m 0,0 0.567,-0.075 c 0.023,-0.122 0.023,-0.273 0,-0.416 H -1.21 c -0.023,0.143 -0.023,0.294 0,0.416 L -0.643,0 v 1.316 l -1.482,2.767 -0.597,0.075 c -0.023,0.122 -0.023,0.272 0,0.416 h 1.777 c 0.022,-0.144 0.022,-0.294 0,-0.416 l -0.477,-0.067 1.074,-2.125 0.03,-0.378 h 0.016 l 0.03,0.378 1.074,2.117 -0.507,0.075 C 0.272,4.28 0.272,4.43 0.295,4.574 H 2.072 C 2.094,4.43 2.094,4.28 2.072,4.158 L 1.474,4.091 0,1.316 Z"
             style="fill:#313445;fill-opacity:1;fill-rule:nonzero;stroke:none"
             id="path3121"
             inkscape:connector-curvature="0" /></g><g
           id="g3123"
           transform="translate(113.3474,295.4137)"><path
             d="m 0,0 c -5.266,0 -9.551,-4.284 -9.551,-9.551 0,-5.267 4.285,-9.552 9.551,-9.552 5.266,0 9.551,4.285 9.551,9.552 C 9.551,-4.284 5.266,0 0,0 M -2.326,-0.807 C -4.32,-2.255 -5.727,-5.505 -5.788,-9.3 h -3.254 c 0.112,4.075 2.928,7.485 6.716,8.493 m -6.716,-8.995 h 3.254 c 0.061,-3.796 1.468,-7.045 3.462,-8.494 -3.788,1.009 -6.604,4.419 -6.716,8.494 m 8.791,-8.788 c -2.752,0.222 -4.959,4.057 -5.035,8.788 h 5.035 z m 0,9.29 h -5.035 c 0.076,4.73 2.283,8.566 5.035,8.787 z m 0.502,8.787 C 3.003,-0.734 5.21,-4.57 5.285,-9.3 H 0.251 Z m 0,-9.289 H 5.285 C 5.21,-14.533 3.003,-18.368 0.251,-18.59 Z m 2.075,-8.494 c 1.994,1.449 3.401,4.698 3.462,8.494 H 9.042 C 8.93,-13.877 6.114,-17.287 2.326,-18.296 M 5.788,-9.3 C 5.727,-5.505 4.32,-2.255 2.326,-0.807 6.114,-1.815 8.93,-5.225 9.042,-9.3 Z"
             style="fill:#313445;fill-opacity:1;fill-rule:nonzero;stroke:none"
             id="path3125"
             inkscape:connector-curvature="0" /></g><g
           id="g3127"
           transform="translate(128.6119,290.5007)"><path
             d="m 0,0 c -0.085,3.318 -0.791,6.663 -2.041,9.673 -1.19,2.866 -2.863,5.418 -4.837,7.381 -2.505,2.49 -4.887,4.148 -8.367,4.148 -2.522,0 -4.911,-0.705 -8.376,-4.148 -0.995,-0.99 -1.913,-2.13 -2.732,-3.384 0.218,0.03 0.438,0.057 0.658,0.081 0.738,1.085 1.553,2.076 2.429,2.947 2.486,2.471 4.695,4.002 8.021,4.002 3.319,0 5.527,-1.531 8.013,-4.002 1.927,-1.917 3.562,-4.412 4.727,-7.217 1.227,-2.954 1.919,-6.237 2.003,-9.494 0.132,-5.171 -1.292,-10.293 -4.136,-14.95 0.276,0.127 0.549,0.26 0.82,0.398 C -1.185,-10.003 0.129,-5.026 0,0"
             style="fill:#313445;fill-opacity:1;fill-rule:nonzero;stroke:none"
             id="path3129"
             inkscape:connector-curvature="0" /></g><g
           id="g3131"
           transform="translate(99.0093,294.4065)"><path
             d="M 0,0 C 0.335,1.925 0.876,3.809 1.609,5.575 1.664,5.706 1.72,5.835 1.776,5.965 1.572,5.919 1.369,5.869 1.167,5.817 1.16,5.801 1.152,5.784 1.145,5.767 0.292,3.712 -0.307,1.501 -0.629,-0.75 -0.424,-0.497 -0.214,-0.246 0,0"
             style="fill:#313445;fill-opacity:1;fill-rule:nonzero;stroke:none"
             id="path3133"
             inkscape:connector-curvature="0" /></g><g
           id="g3135"
           transform="translate(132.4483,282.0504)"><path
             d="M 0,0 C -0.514,2.147 -1.32,4.272 -2.372,6.27 -2.389,5.944 -2.413,5.62 -2.441,5.294 c 0.849,-1.741 1.511,-3.567 1.953,-5.411 0.034,-0.145 0.066,-0.289 0.098,-0.434 0.139,0.158 0.274,0.317 0.406,0.478 C 0.011,-0.049 0.006,-0.025 0,0"
             style="fill:#313445;fill-opacity:1;fill-rule:nonzero;stroke:none"
             id="path3137"
             inkscape:connector-curvature="0" /></g><g
           id="g3139"
           transform="translate(122.9504,302.8436)"><path
             d="m 0,0 c -0.025,0.002 -0.05,0.005 -0.075,0.007 -2.213,0.176 -4.496,0.063 -6.732,-0.325 0.305,-0.117 0.608,-0.238 0.908,-0.366 1.93,0.274 3.883,0.342 5.784,0.19 C 0.033,-0.506 0.181,-0.52 0.328,-0.535 0.221,-0.353 0.111,-0.176 0,0"
             style="fill:#313445;fill-opacity:1;fill-rule:nonzero;stroke:none"
             id="path3141"
             inkscape:connector-curvature="0" /></g><g
           id="g3143"
           transform="translate(133.097,277.5568)"><path
             d="m 0,0 c -0.16,-0.153 -0.322,-0.304 -0.486,-0.453 0.039,-1.303 -0.038,-2.576 -0.234,-3.788 -0.559,-3.46 -1.445,-5.998 -4.136,-7.953 -2.686,-1.951 -5.373,-2.01 -8.835,-1.472 -2.687,0.418 -5.476,1.476 -8.067,3.061 -2.728,1.668 -5.218,3.917 -7.2,6.503 -3.138,4.093 -4.993,9.056 -5.437,14.476 -0.148,-0.264 -0.291,-0.531 -0.429,-0.801 0.557,-5.221 2.418,-10.003 5.467,-13.981 2.02,-2.634 4.556,-4.925 7.337,-6.626 2.648,-1.619 5.5,-2.701 8.252,-3.128 1.142,-0.177 2.222,-0.291 3.257,-0.291 2.124,0 4.057,0.477 5.95,1.853 2.04,1.482 3.558,3.457 4.337,8.279 C -0.001,-2.942 0.072,-1.488 0,0"
             style="fill:#313445;fill-opacity:1;fill-rule:nonzero;stroke:none"
             id="path3145"
             inkscape:connector-curvature="0" /></g><g
           id="g3147"
           transform="translate(137.9232,293.8474)"><path
             d="m 0,0 c -0.78,2.398 -2.189,4.453 -6.534,6.683 -1.242,0.638 -2.602,1.157 -4.04,1.548 0.096,-0.199 0.189,-0.4 0.281,-0.602 1.251,-0.366 2.438,-0.832 3.53,-1.392 3.118,-1.601 5.258,-3.229 6.285,-6.392 1.026,-3.157 0.251,-5.73 -1.33,-8.858 -1.227,-2.425 -3.095,-4.751 -5.404,-6.726 -2.429,-2.079 -5.337,-3.752 -8.409,-4.838 -4.871,-1.722 -10.175,-1.952 -15.477,-0.691 0.206,-0.223 0.416,-0.441 0.629,-0.656 2.031,-0.43 4.059,-0.647 6.061,-0.647 3.075,0 6.088,0.507 8.954,1.521 3.13,1.106 6.093,2.81 8.569,4.929 2.358,2.018 4.269,4.397 5.525,6.881 C 0.234,-6.088 1.076,-3.31 0,0"
             style="fill:#313445;fill-opacity:1;fill-rule:nonzero;stroke:none"
             id="path3149"
             inkscape:connector-curvature="0" /></g><g
           id="g3151"
           transform="translate(110.9783,264.8306)"><path
             d="m 0,0 c -1.223,-0.437 -2.454,-0.756 -3.663,-0.944 -3.463,-0.538 -6.151,-0.478 -8.842,1.477 -2.685,1.951 -3.571,4.487 -4.13,7.948 -0.433,2.683 -0.288,5.663 0.418,8.617 0.744,3.11 2.113,6.173 3.96,8.857 2.928,4.256 7.085,7.56 12.115,9.656 -0.297,0.059 -0.596,0.112 -0.896,0.16 -4.804,-2.143 -8.787,-5.395 -11.633,-9.531 -1.882,-2.735 -3.276,-5.856 -4.035,-9.025 -0.721,-3.019 -0.868,-6.066 -0.424,-8.814 0.562,-3.488 1.515,-6.229 4.33,-8.275 1.518,-1.103 3.206,-1.846 5.959,-1.846 0.947,0 2.021,0.088 3.256,0.28 1.375,0.213 2.778,0.591 4.166,1.118 C 0.387,-0.218 0.193,-0.11 0,0"
             style="fill:#313445;fill-opacity:1;fill-rule:nonzero;stroke:none"
             id="path3153"
             inkscape:connector-curvature="0" /></g><g
           id="g3155"
           transform="translate(119.9937,270.5425)"><path
             d="m 0,0 c -1.411,-1.373 -2.968,-2.591 -4.611,-3.595 -0.13,-0.08 -0.261,-0.157 -0.391,-0.233 0.193,-0.083 0.386,-0.163 0.58,-0.24 0.024,0.016 0.048,0.029 0.072,0.044 1.911,1.169 3.708,2.617 5.3,4.264 C 0.635,0.154 0.318,0.075 0,0"
             style="fill:#313445;fill-opacity:1;fill-rule:nonzero;stroke:none"
             id="path3157"
             inkscape:connector-curvature="0" /></g><g
           id="g3159"
           transform="translate(126.3264,293.6766)"><path
             d="m 0,0 c -3.523,3.907 -7.846,6.689 -12.66,8.118 -3.182,0.944 -6.58,1.306 -9.83,1.048 -3.093,-0.247 -6.037,-1.049 -8.514,-2.32 -3.142,-1.612 -5.456,-3.365 -6.531,-6.675 -0.779,-2.398 -0.847,-4.889 1.357,-9.247 0.627,-1.239 1.416,-2.453 2.343,-3.607 0.039,0.217 0.082,0.434 0.127,0.652 -0.791,1.025 -1.471,2.093 -2.021,3.181 -1.582,3.129 -2.356,5.703 -1.328,8.866 1.026,3.156 3.164,4.783 6.282,6.384 2.418,1.241 5.297,2.024 8.325,2.266 3.188,0.253 6.524,-0.102 9.647,-1.03 C -7.85,6.167 -3.423,3.234 0.125,-0.902 0.089,-0.6 0.046,-0.3 0,0"
             style="fill:#313445;fill-opacity:1;fill-rule:nonzero;stroke:none"
             id="path3161"
             inkscape:connector-curvature="0" /></g><g
           id="g3163"
           transform="translate(100.7775,274.8619)"><path
             d="M 0,0 C -1.717,0.911 -3.332,2.002 -4.777,3.239 -4.896,3.341 -5.014,3.444 -5.13,3.548 -5.15,3.34 -5.166,3.131 -5.18,2.923 -5.154,2.901 -5.13,2.879 -5.104,2.858 -3.421,1.417 -1.512,0.169 0.52,-0.831 0.342,-0.556 0.169,-0.28 0,0"
             style="fill:#313445;fill-opacity:1;fill-rule:nonzero;stroke:none"
             id="path3165"
             inkscape:connector-curvature="0" /></g></g></g></g></svg>